<svg width="141" height="43" viewBox="0 0 141 43" fill="none" xmlns="http://www.w3.org/2000/svg">
<g clip-path="url(#clip0_80_5186)">
<path fill-rule="evenodd" clip-rule="evenodd" d="M87.461 33.627C79.269 39.7449 67.3927 42.9999 57.1632 42.9999C43.5081 43.0636 30.321 37.9687 20.1823 28.712C19.4166 28.0117 20.099 27.052 21.0217 27.5935C31.5588 33.8021 44.5949 37.5402 58.0538 37.5402C67.7564 37.4963 77.3549 35.513 86.298 31.7045C87.682 31.1111 88.845 32.6285 87.4898 33.6497" fill="#14181F"/>
<path fill-rule="evenodd" clip-rule="evenodd" d="M90.8866 29.6911C89.8358 28.3294 83.9601 29.0427 81.317 29.3669C80.5193 29.4642 80.3944 28.7574 81.1184 28.2451C85.8055 24.909 93.4881 25.8752 94.3819 26.9872C95.2758 28.0992 94.148 35.9095 89.7525 39.6314C89.0765 40.2052 88.4326 39.8972 88.7337 39.1418C89.7205 36.6454 91.9375 31.0366 90.8866 29.6911" fill="#14181F"/>
<path fill-rule="evenodd" clip-rule="evenodd" d="M81.5038 4.69775V1.45889C81.5025 1.35126 81.5226 1.24446 81.563 1.14488C81.6034 1.04529 81.6632 0.954974 81.7389 0.879313C81.8145 0.803653 81.9045 0.744206 82.0034 0.704526C82.1023 0.664846 82.208 0.645746 82.3144 0.64837H96.6607C96.7687 0.644842 96.8763 0.663548 96.9769 0.703354C97.0775 0.74316 97.1691 0.803236 97.2461 0.879938C97.3231 0.956639 97.3839 1.04837 97.4248 1.14956C97.4657 1.25075 97.4859 1.3593 97.4841 1.46862V4.24386C97.4841 4.71072 97.0964 5.32024 96.4044 6.28314L88.9782 17.008C91.7334 16.9432 94.652 17.3614 97.1573 18.7847C97.3827 18.9091 97.5716 19.0916 97.7049 19.3136C97.8383 19.5356 97.9113 19.7894 97.9166 20.0491V23.5052C97.9166 23.9818 97.404 24.5329 96.8626 24.2444C94.5178 23.0247 91.9186 22.3908 89.2822 22.3959C86.6458 22.401 84.049 23.0448 81.7088 24.2736C81.2059 24.5394 80.6869 23.998 80.6869 23.5214V20.2371C80.6398 19.4586 80.8251 18.6837 81.2187 18.0131L89.8271 5.51152H82.3368C82.2288 5.51592 82.1211 5.49807 82.0202 5.45907C81.9192 5.42006 81.8271 5.36071 81.7496 5.28461C81.672 5.20851 81.6104 5.11726 81.5688 5.01638C81.5271 4.9155 81.5061 4.8071 81.507 4.69775" fill="#14181F"/>
<path fill-rule="evenodd" clip-rule="evenodd" d="M29.1758 24.9255H24.8123C24.6143 24.9186 24.4256 24.8392 24.2813 24.702C24.1369 24.5649 24.0466 24.3793 24.0273 24.1798V1.5143C24.0298 1.40445 24.0537 1.29617 24.0976 1.19565C24.1414 1.09513 24.2044 1.00434 24.283 0.928463C24.3615 0.852591 24.4541 0.793124 24.5553 0.753459C24.6566 0.713793 24.7646 0.694708 24.8731 0.697292H28.9419C29.1438 0.702997 29.3365 0.783896 29.4831 0.924486C29.6297 1.06508 29.7199 1.25547 29.7364 1.45919V4.41923H29.8165C30.8737 1.55645 32.8729 0.220703 35.5608 0.220703C38.2488 0.220703 40.0012 1.55645 41.225 4.43544C42.2887 1.55645 44.6851 0.220703 47.2513 0.220703C49.0838 0.220703 51.0958 0.982597 52.3004 2.70091C53.6876 4.60727 53.4057 7.37602 53.4057 9.8076V24.1118C53.4032 24.2212 53.3794 24.329 53.3357 24.4292C53.292 24.5293 53.2292 24.6197 53.151 24.6953C53.0728 24.7709 52.9806 24.8301 52.8797 24.8696C52.7788 24.9091 52.6712 24.9281 52.5631 24.9255H48.1996C47.9916 24.9172 47.7946 24.8286 47.6492 24.6778C47.5038 24.5271 47.421 24.3256 47.4179 24.115V12.0965C47.4179 11.1433 47.498 8.75716 47.2929 7.85261C46.9726 6.32558 45.989 5.90735 44.7299 5.90735C44.1621 5.92358 43.6117 6.10917 43.1478 6.44082C42.6838 6.77248 42.327 7.23542 42.1221 7.77156C41.6736 8.91278 41.7152 10.8191 41.7152 12.1095V24.1118C41.7102 24.3322 41.619 24.5416 41.4617 24.6941C41.3043 24.8467 41.0937 24.9299 40.8758 24.9255H36.5219C36.3139 24.9172 36.1169 24.8286 35.9715 24.6778C35.8261 24.5271 35.7434 24.3256 35.7402 24.115V12.0965C35.7402 9.56768 36.1471 5.84899 33.0523 5.84899C29.9575 5.84899 30.0376 9.47042 30.0376 12.0965V24.1118C30.0355 24.2213 30.012 24.3294 29.9684 24.4297C29.9249 24.53 29.8621 24.6206 29.7838 24.6963C29.7055 24.7719 29.6131 24.8311 29.512 24.8705C29.411 24.9098 29.3032 24.9285 29.195 24.9255" fill="#14181F"/>
<path fill-rule="evenodd" clip-rule="evenodd" d="M109.833 0.217285C116.311 0.217285 119.819 5.83585 119.819 13.0041C119.819 19.9195 115.949 25.4052 109.84 25.4052C103.483 25.4052 100.023 19.7736 100.023 12.761C100.023 5.74831 103.519 0.217285 109.833 0.217285ZM109.888 4.86322C106.684 4.86322 106.463 9.29841 106.463 12.0607C106.463 14.823 106.425 20.7463 109.846 20.7463C113.268 20.7463 113.389 15.9739 113.389 13.0657C113.389 11.1561 113.309 8.86721 112.749 7.05488C112.236 5.46625 111.259 4.86322 109.888 4.86322Z" fill="#14181F"/>
<path fill-rule="evenodd" clip-rule="evenodd" d="M128.214 24.9255H123.867C123.659 24.9165 123.462 24.8278 123.316 24.6772C123.17 24.5267 123.087 24.3257 123.082 24.115V1.43649C123.107 1.22994 123.206 1.03998 123.361 0.903412C123.516 0.766842 123.716 0.693391 123.921 0.697292H127.971C128.15 0.703611 128.323 0.768647 128.463 0.882639C128.603 0.996631 128.702 1.15343 128.746 1.3295V4.79855H128.826C130.044 1.69586 131.755 0.220703 134.766 0.220703C136.724 0.220703 138.636 0.937208 139.86 2.8922C141.001 4.70453 141.001 7.75535 141.001 9.95025V24.2155C140.971 24.4171 140.87 24.6007 140.716 24.7321C140.562 24.8634 140.366 24.9333 140.164 24.9288H135.788C135.597 24.9195 135.415 24.8432 135.274 24.713C135.132 24.5829 135.04 24.407 135.013 24.2155V11.8955C135.013 9.4153 135.298 5.79063 132.283 5.79063C131.733 5.81505 131.201 6.00004 130.752 6.32332C130.303 6.64659 129.956 7.09437 129.752 7.6127C129.144 8.99383 129.057 10.3782 129.057 11.9052V24.1118C129.049 24.3331 128.956 24.5425 128.797 24.6947C128.638 24.847 128.427 24.9299 128.208 24.9255" fill="#14181F"/>
<path fill-rule="evenodd" clip-rule="evenodd" d="M70.0708 14.0999C70.0708 15.8215 70.1092 17.2545 69.2538 18.7847C68.5586 20.0265 67.4597 20.7916 66.2327 20.7916C64.5571 20.7916 63.5768 19.4948 63.5768 17.5916C63.5768 13.8308 66.9119 13.1467 70.0708 13.1467V14.0999ZM74.4695 24.8702C74.3283 24.9916 74.1537 25.0663 73.9693 25.0843C73.7849 25.1023 73.5994 25.0626 73.4379 24.9707C71.9898 23.7516 71.7303 23.1908 70.939 22.0301C68.5426 24.4973 66.8446 25.2398 63.7434 25.2398C60.0687 25.2398 57.2109 22.9444 57.2109 18.3568C57.2109 14.771 59.1332 12.3362 61.8628 11.1366C64.2335 10.0862 67.5398 9.8949 70.0708 9.60959V9.03574C70.0708 7.98206 70.1509 6.74033 69.5389 5.83254C69.0103 5.01877 67.9883 4.68484 67.0881 4.68484C65.4253 4.68484 63.9484 5.54724 63.564 7.33688C63.5419 7.53706 63.4563 7.7246 63.32 7.87134C63.1837 8.01808 63.004 8.11609 62.8079 8.15064L58.5789 7.68378C58.4756 7.66913 58.3764 7.63318 58.2874 7.57816C58.1984 7.52314 58.1214 7.45022 58.0614 7.36392C58.0013 7.27761 57.9594 7.17976 57.9382 7.0764C57.917 6.97304 57.917 6.86639 57.9382 6.76302C58.8993 1.57566 63.5447 0 67.6936 0C69.8177 0 72.5953 0.573852 74.2677 2.19815C76.3918 4.20501 76.1899 6.88298 76.1899 9.80087V16.6806C76.1899 18.7491 77.0389 19.6569 77.8399 20.7721C78.1154 21.1742 78.1794 21.6508 77.8238 21.9458C76.9332 22.7012 75.3473 24.0953 74.4791 24.8637L74.4695 24.8702Z" fill="#14181F"/>
<path fill-rule="evenodd" clip-rule="evenodd" d="M12.8598 14.0999C12.8598 15.8215 12.8983 17.2545 12.0429 18.7847C11.3477 20.0265 10.2488 20.7916 9.02175 20.7916C7.34619 20.7916 6.36584 19.4948 6.36584 17.5916C6.36584 13.8308 9.70414 13.1467 12.8598 13.1467V14.0999ZM17.2586 24.8702C17.1181 24.9917 16.944 25.0666 16.76 25.0846C16.576 25.1026 16.391 25.0628 16.2302 24.9707C14.7789 23.7516 14.5194 23.1908 13.7248 22.0301C11.3316 24.4973 9.63366 25.2398 6.53244 25.2398C2.85774 25.2398 0 22.9444 0 18.3568C0 14.771 1.92225 12.3362 4.65184 11.1366C7.02261 10.0862 10.3289 9.8949 12.8598 9.60959V9.03574C12.8598 7.98206 12.9399 6.74033 12.328 5.83254C11.7994 5.01877 10.7774 4.68484 9.87715 4.68484C8.2144 4.68484 6.73427 5.54724 6.36904 7.33688C6.34754 7.53724 6.2621 7.72506 6.12567 7.8719C5.98925 8.01873 5.80926 8.11659 5.61296 8.15064L1.38402 7.68378C1.28072 7.66913 1.18149 7.63318 1.09247 7.57816C1.00345 7.52314 0.926532 7.45022 0.866473 7.36392C0.806414 7.27761 0.764492 7.17976 0.7433 7.0764C0.722108 6.97304 0.722098 6.86639 0.743269 6.76302C1.70439 1.56918 6.34021 0 10.4923 0C12.6131 0 15.378 0.573852 17.0663 2.19815C19.1872 4.20501 18.9886 6.88298 18.9886 9.80087V16.6806C18.9886 18.7491 19.8344 19.6569 20.6353 20.7721C20.914 21.1742 20.9749 21.6508 20.6193 21.9458C19.7287 22.7012 18.1428 24.0953 17.2746 24.8637L17.2586 24.8702Z" fill="#14181F"/>
</g>
<defs>
<clipPath id="clip0_80_5186">
<rect width="141" height="43" fill="white"/>
</clipPath>
</defs>
</svg>
