<svg width="25" height="24" viewBox="0 0 25 24" fill="none" xmlns="http://www.w3.org/2000/svg">
<g clip-path="url(#clip0_2910_25338)">
<path d="M4.78698 17.9061C5.81653 16.6729 6.80082 15.5981 7.84168 14.4667C8.88255 13.3354 10.0026 12.3058 11.0208 11.1518C12.0391 9.99781 13.1818 8.99089 14.2679 7.90477C15.354 6.81866 16.5532 5.91356 17.7977 4.89533C18.0381 4.72185 18.3325 4.63961 18.628 4.66334C18.9235 4.68708 19.2009 4.81524 19.4105 5.02487C19.6201 5.2345 19.7483 5.51191 19.772 5.80742C19.7958 6.10293 19.7135 6.39724 19.5401 6.63764C18.5218 7.88215 17.5262 8.96826 16.4967 10.0883C15.4671 11.2084 14.3358 12.2492 13.3062 13.3919C12.2767 14.5346 11.1453 15.5528 9.99129 16.5711C8.83729 17.5893 7.71723 18.6641 6.5293 19.6484C6.2754 19.8509 5.95257 19.9464 5.62936 19.9148C5.30616 19.8831 5.00803 19.7266 4.7983 19.4787C4.61344 19.259 4.51114 18.9816 4.50908 18.6944C4.50701 18.4073 4.60531 18.1285 4.78698 17.9061V17.9061Z" fill="white"/>
<path d="M8.01123 3.97887C8.96158 3.8431 9.90062 3.78654 10.8397 3.72997C11.7787 3.6734 12.729 3.6734 13.6681 3.66208C14.6071 3.65077 15.5575 3.69603 16.5078 3.74128C17.4582 3.78654 18.3406 3.85442 19.2344 4.06938C19.3954 4.09653 19.5494 4.1554 19.6874 4.24258C19.8254 4.32975 19.9447 4.44349 20.0384 4.57718C20.1321 4.71087 20.1983 4.86184 20.2331 5.02133C20.268 5.18082 20.2708 5.34564 20.2413 5.50622C20.1962 5.75671 20.0756 5.98741 19.8956 6.16739C19.7156 6.34736 19.4849 6.46801 19.2344 6.51314C18.3274 6.65752 17.4135 6.7557 16.4965 6.8073C15.5575 6.84124 14.6071 6.86386 13.6681 6.85255C12.729 6.84124 11.7787 6.81861 10.8283 6.75073C9.87799 6.68284 8.8937 6.53577 7.92072 6.33212C7.68027 6.23714 7.47525 6.06984 7.33399 5.85332C7.19272 5.6368 7.12218 5.38176 7.13212 5.12342C7.14206 4.86509 7.23197 4.61621 7.38945 4.41119C7.54693 4.20616 7.76419 4.05509 8.01123 3.97887V3.97887Z" fill="white"/>
<path d="M20.366 5.20068C20.5187 6.13351 20.6207 7.07393 20.6715 8.0178C20.7394 8.96815 20.7394 9.9185 20.7733 10.8575C20.8073 11.7966 20.762 12.7469 20.7281 13.686C20.6941 14.625 20.6036 15.5754 20.4565 16.5144C20.3902 16.82 20.2116 17.0896 19.956 17.2698C19.7004 17.45 19.3864 17.5276 19.0763 17.4874C18.8383 17.4347 18.6203 17.3151 18.4479 17.1427C18.2756 16.9704 18.156 16.7524 18.1033 16.5144C17.9267 15.5678 17.802 14.6122 17.7299 13.652C17.6734 12.713 17.6394 11.7739 17.6394 10.8236C17.6394 9.87324 17.6394 8.94552 17.7073 7.99517C17.7752 7.04482 17.8318 6.10578 17.9675 5.15543C18.036 4.88616 18.1936 4.64796 18.4145 4.47951C18.6355 4.31105 18.9069 4.22224 19.1847 4.22748C19.4625 4.23272 19.7304 4.33171 19.9448 4.50838C20.1593 4.68505 20.3077 4.92902 20.366 5.20068Z" fill="white"/>
</g>
<defs>
<clipPath id="clip0_2910_25338">
<rect width="24" height="24" fill="white" transform="translate(0.5)"/>
</clipPath>
</defs>
</svg>
