<svg width="16" height="16" viewBox="0 0 16 16" fill="none" xmlns="http://www.w3.org/2000/svg">
<path d="M14.3995 8.8214C13.3328 8.9174 12.3621 8.96007 11.3381 9.00273C10.3141 9.0454 9.30079 9.00274 8.27679 9.06674C7.25279 9.13074 6.23946 9.06674 5.21546 9.0134C4.19146 8.96007 3.19946 8.92807 2.13279 8.8214C1.93769 8.78986 1.76018 8.68988 1.63207 8.53939C1.50395 8.3889 1.43359 8.19771 1.43359 8.00007C1.43359 7.80243 1.50395 7.61124 1.63207 7.46075C1.76018 7.31025 1.93769 7.21028 2.13279 7.17874C3.19946 7.07207 4.18079 7.0294 5.19413 6.98674C6.20746 6.94407 7.23146 6.98674 8.25546 6.98674C9.27946 6.98674 10.2928 6.98674 11.3168 7.05074C12.3408 7.11474 13.3541 7.13607 14.3781 7.23207C14.5933 7.2563 14.7905 7.36344 14.9279 7.53074C15.0653 7.69804 15.1321 7.91232 15.1141 8.12807C15.0874 8.30595 15.0029 8.47013 14.8738 8.59538C14.7447 8.72064 14.5781 8.80004 14.3995 8.8214Z" fill="#14181F"/>
<path d="M6.31412 13.8667C5.80212 13.4827 5.33278 13.0667 4.86345 12.6507C4.39412 12.2347 3.94612 11.7867 3.49812 11.3494C3.05012 10.912 2.62345 10.4427 2.19678 9.97335C1.77012 9.50402 1.38612 9.05602 1.06612 8.53335C1.00303 8.44467 0.958203 8.34433 0.934233 8.23817C0.910262 8.13201 0.907628 8.02215 0.926485 7.91496C0.945342 7.80777 0.985313 7.70541 1.04408 7.6138C1.10284 7.5222 1.17922 7.44318 1.26878 7.38135C1.40814 7.28455 1.57377 7.23267 1.74345 7.23267C1.91313 7.23267 2.07876 7.28455 2.21812 7.38135C2.71504 7.7582 3.19213 8.16051 3.64745 8.58669C4.10612 9.01335 4.56478 9.45069 5.00212 9.89869C5.43945 10.3467 5.87678 10.8054 6.29278 11.2854C6.70878 11.7654 7.11412 12.2454 7.46612 12.8C7.53469 12.9581 7.55247 13.1337 7.517 13.3023C7.48152 13.471 7.39455 13.6245 7.26808 13.7416C7.14162 13.8586 6.98191 13.9336 6.81102 13.956C6.64013 13.9784 6.4665 13.9472 6.31412 13.8667Z" fill="#14181F"/>
<path d="M1.06581 7.4667C1.41974 6.95604 1.80073 6.46467 2.20714 5.9947C2.62314 5.5147 3.07114 5.0667 3.49781 4.60803C3.92447 4.14936 4.39381 3.7227 4.85247 3.29603C5.31114 2.86936 5.80181 2.46403 6.31381 2.13336C6.48737 2.0031 6.70497 1.94581 6.92018 1.9737C7.1354 2.0016 7.33119 2.11248 7.46581 2.2827C7.55315 2.41973 7.59956 2.57886 7.59956 2.74136C7.59956 2.90387 7.55315 3.063 7.46581 3.20003C7.10284 3.72952 6.71114 4.23873 6.29247 4.72536C5.87647 5.1947 5.44981 5.65336 5.00181 6.10136C4.55381 6.54936 4.11647 6.9867 3.63647 7.4027C3.15647 7.8187 2.68714 8.2347 2.13247 8.6187C1.9742 8.69484 1.79568 8.71824 1.62313 8.68546C1.45058 8.65268 1.29308 8.56545 1.17375 8.43658C1.05442 8.3077 0.979547 8.14397 0.960119 7.96941C0.940691 7.79485 0.977733 7.61866 1.06581 7.4667Z" fill="#14181F"/>
</svg>
