<svg width="40" height="40" viewBox="0 0 40 40" fill="none" xmlns="http://www.w3.org/2000/svg">
<g filter="url(#filter0_b_3798_30468)">
<path d="M26.3995 20.8213C25.3328 20.9173 24.3621 20.96 23.3381 21.0027C22.3141 21.0453 21.3008 21.0027 20.2768 21.0667C19.2528 21.1307 18.2395 21.0667 17.2155 21.0133C16.1915 20.96 15.1995 20.928 14.1328 20.8213C13.9377 20.7898 13.7602 20.6898 13.6321 20.5393C13.504 20.3888 13.4336 20.1976 13.4336 20C13.4336 19.8024 13.504 19.6112 13.6321 19.4607C13.7602 19.3102 13.9377 19.2102 14.1328 19.1787C15.1995 19.072 16.1808 19.0293 17.1941 18.9867C18.2075 18.944 19.2315 18.9867 20.2555 18.9867C21.2795 18.9867 22.2928 18.9867 23.3168 19.0507C24.3408 19.1147 25.3541 19.136 26.3781 19.232C26.5933 19.2562 26.7905 19.3634 26.9279 19.5307C27.0653 19.698 27.1321 19.9123 27.1141 20.128C27.0874 20.3059 27.0029 20.4701 26.8738 20.5953C26.7447 20.7206 26.5781 20.8 26.3995 20.8213Z" fill="#14181F"/>
<path d="M18.3141 25.8667C17.8021 25.4827 17.3328 25.0667 16.8635 24.6507C16.3941 24.2347 15.9461 23.7867 15.4981 23.3493C15.0501 22.912 14.6235 22.4427 14.1968 21.9733C13.7701 21.504 13.3861 21.056 13.0661 20.5333C13.003 20.4446 12.9582 20.3443 12.9342 20.2381C12.9103 20.132 12.9076 20.0221 12.9265 19.9149C12.9453 19.8077 12.9853 19.7054 13.0441 19.6138C13.1028 19.5222 13.1792 19.4432 13.2688 19.3813C13.4081 19.2845 13.5738 19.2326 13.7435 19.2326C13.9131 19.2326 14.0788 19.2845 14.2181 19.3813C14.715 19.7582 15.1921 20.1605 15.6475 20.5867C16.1061 21.0133 16.5648 21.4507 17.0021 21.8987C17.4395 22.3467 17.8768 22.8053 18.2928 23.2853C18.7088 23.7653 19.1141 24.2453 19.4661 24.8C19.5347 24.9581 19.5525 25.1336 19.517 25.3023C19.4815 25.4709 19.3945 25.6244 19.2681 25.7415C19.1416 25.8586 18.9819 25.9336 18.811 25.956C18.6401 25.9784 18.4665 25.9472 18.3141 25.8667Z" fill="#14181F"/>
<path d="M13.0678 19.4667C13.4217 18.956 13.8027 18.4646 14.2091 17.9947C14.6251 17.5147 15.0731 17.0667 15.4998 16.608C15.9264 16.1493 16.3958 15.7227 16.8544 15.296C17.3131 14.8693 17.8038 14.464 18.3158 14.1333C18.4893 14.0031 18.7069 13.9458 18.9221 13.9737C19.1373 14.0016 19.3331 14.1125 19.4678 14.2827C19.5551 14.4197 19.6015 14.5788 19.6015 14.7413C19.6015 14.9038 19.5551 15.063 19.4678 15.2C19.1048 15.7295 18.7131 16.2387 18.2944 16.7253C17.8784 17.1947 17.4518 17.6533 17.0038 18.1013C16.5558 18.5493 16.1184 18.9867 15.6384 19.4027C15.1584 19.8187 14.6891 20.2347 14.1344 20.6187C13.9762 20.6948 13.7976 20.7182 13.6251 20.6854C13.4525 20.6527 13.295 20.5654 13.1757 20.4365C13.0564 20.3077 12.9815 20.1439 12.9621 19.9694C12.9426 19.7948 12.9797 19.6186 13.0678 19.4667Z" fill="#14181F"/>
<rect x="0.5" y="0.5" width="39" height="39" rx="19.5" stroke="#CCD1D6"/>
</g>
<defs>
<filter id="filter0_b_3798_30468" x="-20" y="-20" width="80" height="80" filterUnits="userSpaceOnUse" color-interpolation-filters="sRGB">
<feFlood flood-opacity="0" result="BackgroundImageFix"/>
<feGaussianBlur in="BackgroundImage" stdDeviation="10"/>
<feComposite in2="SourceAlpha" operator="in" result="effect1_backgroundBlur_3798_30468"/>
<feBlend mode="normal" in="SourceGraphic" in2="effect1_backgroundBlur_3798_30468" result="shape"/>
</filter>
</defs>
</svg>
