<svg width="24" height="24" viewBox="0 0 24 24" fill="none" xmlns="http://www.w3.org/2000/svg">
<path d="M2.39996 10.7681C3.99996 10.6241 5.45596 10.5601 6.99196 10.4961C8.52796 10.4321 10.048 10.4961 11.584 10.4001C13.12 10.3041 14.64 10.4001 16.176 10.4001C17.712 10.4001 19.2 10.6081 20.8 10.7681C21.0926 10.8154 21.3589 10.9654 21.551 11.1911C21.7432 11.4168 21.8488 11.7036 21.8488 12.0001C21.8488 12.2966 21.7432 12.5833 21.551 12.8091C21.3589 13.0348 21.0926 13.1848 20.8 13.2321C19.2 13.3921 17.728 13.4561 16.208 13.5201C14.688 13.5841 13.152 13.5201 11.616 13.6001C10.08 13.6801 8.55996 13.6001 7.02396 13.5041C5.48796 13.4081 3.93596 13.3761 2.39996 13.2321C2.07724 13.1957 1.7814 13.035 1.57527 12.7841C1.36913 12.5331 1.26893 12.2117 1.29596 11.8881C1.32062 11.602 1.44443 11.3335 1.646 11.129C1.84758 10.9245 2.11426 10.7969 2.39996 10.7681Z" fill="#14181F"/>
<path d="M14.5279 3.20023C15.2959 3.77623 15.9999 4.40023 16.7039 5.02423C17.4079 5.64823 18.0799 6.32023 18.7519 6.97623C19.4239 7.63223 20.0639 8.33623 20.7039 9.04023C21.3439 9.74423 21.9199 10.4162 22.3999 11.2002C22.4946 11.3333 22.5618 11.4838 22.5978 11.643C22.6337 11.8022 22.6377 11.967 22.6094 12.1278C22.5811 12.2886 22.5212 12.4422 22.433 12.5796C22.3449 12.717 22.2303 12.8355 22.0959 12.9282C21.8869 13.0734 21.6385 13.1513 21.3839 13.1513C21.1294 13.1513 20.881 13.0734 20.6719 12.9282C19.9285 12.3889 19.2129 11.8122 18.5279 11.2002C17.8399 10.5602 17.1519 9.90423 16.4959 9.23223C15.8399 8.56023 15.1839 7.87223 14.5599 7.15223C13.9359 6.43223 13.3439 5.63223 12.7999 4.80023C12.6971 4.56305 12.6704 4.29978 12.7236 4.04679C12.7768 3.7938 12.9073 3.56358 13.097 3.38793C13.2867 3.21229 13.5263 3.09989 13.7826 3.06627C14.0389 3.03264 14.2994 3.07945 14.5279 3.20023Z" fill="#14181F"/>
<path d="M22.4 12.7998C21.8483 13.5674 21.2555 14.3045 20.624 15.0078C20 15.7278 19.328 16.3998 18.688 17.0878C18.048 17.7758 17.344 18.4158 16.656 19.0558C15.968 19.6958 15.232 20.3038 14.464 20.8638C14.201 21.0331 13.884 21.0974 13.5759 21.044C13.2677 20.9907 12.9908 20.8236 12.8 20.5758C12.669 20.3703 12.5994 20.1316 12.5994 19.8878C12.5994 19.6441 12.669 19.4054 12.8 19.1998C13.3444 18.4056 13.932 17.6418 14.56 16.9118C15.184 16.2078 15.824 15.5198 16.496 14.8478C17.168 14.1758 17.824 13.5198 18.544 12.8958C19.264 12.2718 19.968 11.6478 20.736 11.0718C20.9748 10.9299 21.2547 10.8728 21.53 10.91C21.8054 10.9471 22.0601 11.0762 22.2528 11.2764C22.4456 11.4765 22.565 11.7359 22.5917 12.0125C22.6184 12.289 22.5508 12.5665 22.4 12.7998Z" fill="#14181F"/>
</svg>
