<svg width="20" height="20" viewBox="0 0 20 20" fill="none" xmlns="http://www.w3.org/2000/svg">
<path d="M17.5941 4.14544L17.5941 4.1455L17.5966 4.14211C17.7311 3.9572 17.7957 3.73053 17.8172 3.5315C17.8382 3.33654 17.8197 3.14772 17.7673 3.03966L17.7628 3.03025L17.7564 3.02199C17.4013 2.56429 16.7717 2.46747 16.3208 2.83948L16.3208 2.83948L16.3199 2.84019C15.4296 3.59141 14.6204 4.34245 13.8131 5.09171C13.3659 5.46919 12.9599 5.86704 12.5661 6.26274C12.4875 6.34167 12.4095 6.42045 12.3318 6.49896C12.0184 6.81548 11.7093 7.12761 11.3871 7.42666C10.5764 8.17905 9.76591 9.0149 9.03634 9.85087L9.03572 9.85157C8.30885 10.6845 7.58027 11.5193 6.85153 12.4378L6.85146 12.4377L6.84899 12.4411C6.58107 12.8095 6.58107 13.357 6.84899 13.7254L6.84895 13.7255L6.85085 13.7279C7.20592 14.1856 7.83552 14.2824 8.28644 13.9104L8.28729 13.9097C9.17793 13.1582 9.98741 12.4069 10.795 11.6574L10.7959 11.6566L10.796 11.6567L10.7996 11.6529L13.1431 9.23623L13.1432 9.23633L13.1466 9.23237C13.5092 8.81689 13.8921 8.40122 14.2761 7.98437L14.2766 7.98388C14.6601 7.56756 15.0447 7.15006 15.4093 6.73237L15.4099 6.73163C16.1368 5.89876 16.8653 5.06395 17.5941 4.14544Z" fill="#14181F" stroke="#14181F" stroke-width="0.2"/>
<path d="M4.11084 11.4863L4.11075 11.4863L4.11423 11.4896C4.28493 11.6496 4.45311 11.8101 4.62041 11.9698C5.31898 12.6365 6.00228 13.2887 6.79039 13.8308C6.97027 13.9691 7.19317 14.0375 7.40485 14.0375C7.61245 14.0375 7.81864 13.9713 7.96278 13.8285C8.18695 13.685 8.33771 13.4331 8.39175 13.1656C8.44669 12.8937 8.40431 12.5922 8.22221 12.3566C7.49379 11.3551 6.76368 10.4347 5.95138 9.59704C5.14144 8.76178 4.24724 7.92305 3.26958 7.25092L3.27004 7.25025L3.25876 7.24444C2.92542 7.07256 2.47489 6.96859 2.10536 7.25105C1.87792 7.39383 1.72498 7.64785 1.67046 7.91768C1.6157 8.18875 1.65763 8.48915 1.83829 8.72445C2.48952 9.73105 3.30179 10.6519 4.11084 11.4863Z" fill="#14181F" stroke="#14181F" stroke-width="0.2"/>
</svg>
