<svg width="14" height="14" viewBox="0 0 14 14" fill="none" xmlns="http://www.w3.org/2000/svg">
<path d="M12.1339 5.17062C11.8352 5.59995 11.4805 6.03862 11.1072 6.45862C10.7339 6.87862 10.3512 7.26129 9.96853 7.66262C9.58587 8.06395 9.1752 8.39995 8.76454 8.80129C8.35387 9.20262 7.92454 9.51995 7.4672 9.83729C7.3896 9.89249 7.30181 9.93171 7.20892 9.95269C7.11603 9.97366 7.0199 9.97597 6.92611 9.95947C6.83232 9.94297 6.74275 9.90799 6.66259 9.85658C6.58244 9.80516 6.5133 9.73832 6.4592 9.65995C6.3745 9.53802 6.3291 9.39309 6.3291 9.24462C6.3291 9.09615 6.3745 8.95123 6.4592 8.82929C6.78587 8.39995 7.14987 7.95195 7.4672 7.53195C7.78454 7.11195 8.2232 6.72929 8.6152 6.33729C9.0072 5.94529 9.4552 5.59995 9.8752 5.20795C10.2952 4.81595 10.7152 4.48929 11.1632 4.16262C11.3025 4.07982 11.4658 4.04654 11.6264 4.0682C11.787 4.08986 11.9356 4.16518 12.048 4.28193C12.1605 4.39867 12.2301 4.55 12.2457 4.71133C12.2613 4.87265 12.2219 5.03451 12.1339 5.17062Z" fill="#14181F"/>
<path d="M6.53276 9.83727C6.08533 9.51174 5.65539 9.16281 5.24476 8.79194C4.82476 8.42794 4.43276 8.03594 4.03143 7.6626C3.63009 7.28927 3.25676 6.86927 2.88343 6.46794C2.5101 6.0666 2.15543 5.59994 1.86609 5.1706C1.81043 5.09357 1.7706 5.00626 1.74891 4.91373C1.72721 4.8212 1.72409 4.72529 1.73971 4.63154C1.75534 4.53779 1.7894 4.44808 1.83993 4.36758C1.89046 4.28709 1.95646 4.21742 2.03409 4.1626C2.15695 4.07582 2.30368 4.02923 2.45409 4.02923C2.60451 4.02923 2.75124 4.07582 2.87409 4.1626C3.33143 4.47994 3.75143 4.84394 4.17143 5.1986C4.59143 5.55327 4.94609 5.9546 5.33809 6.33727C5.73009 6.71994 6.11276 7.12127 6.47676 7.54127C6.84076 7.96127 7.20476 8.39994 7.54076 8.82927C7.64747 8.96757 7.70015 9.14 7.68895 9.31433C7.67776 9.48865 7.60345 9.65293 7.47994 9.77644C7.35642 9.89996 7.19214 9.97427 7.01782 9.98546C6.8435 9.99665 6.67106 9.94397 6.53276 9.83727Z" fill="#14181F"/>
</svg>
