<svg width="48" height="48" viewBox="0 0 48 48" fill="none" xmlns="http://www.w3.org/2000/svg">
<circle cx="24" cy="24" r="23.5" fill="white" stroke="#CCD1D6"/>
<path d="M30.3357 32.0962C29.6336 31.6019 28.9605 31.0677 28.3197 30.4962C27.6637 29.9522 27.0557 29.3282 26.4317 28.7522C25.8077 28.1762 25.2317 27.5042 24.6557 26.8802C24.0811 26.2197 23.5468 25.5251 23.0557 24.8002C22.8696 24.5257 22.7988 24.1889 22.8587 23.8627C22.9185 23.5364 23.1042 23.2468 23.3757 23.0562C23.5847 22.9186 23.8295 22.8452 24.0797 22.8452C24.33 22.8452 24.5747 22.9186 24.7837 23.0562C25.4882 23.5541 26.1665 24.0882 26.8157 24.6562C27.4557 25.2322 28.0797 25.8242 28.6877 26.4322C29.2637 27.0562 29.8877 27.6482 30.4477 28.3042C31.0158 28.9535 31.5498 29.6317 32.0477 30.3362C32.1432 30.4683 32.2114 30.6179 32.2486 30.7766C32.2858 30.9352 32.2912 31.0996 32.2644 31.2603C32.2376 31.421 32.1792 31.5748 32.0926 31.7128C32.006 31.8508 31.8928 31.9702 31.7597 32.0642C31.5522 32.21 31.3061 32.2909 31.0526 32.2966C30.7991 32.3023 30.5496 32.2325 30.3357 32.0962Z" fill="#14181F"/>
<path d="M23.0557 23.2002C23.5517 22.4962 24.1117 21.8402 24.6557 21.1842C25.1997 20.5282 25.8557 20.0002 26.3997 19.2802C26.9437 18.5602 27.6317 18.0962 28.2717 17.5202C28.921 16.9522 29.5992 16.4182 30.3037 15.9202C30.5436 15.7629 30.8304 15.693 31.1158 15.7224C31.4012 15.7517 31.6677 15.8785 31.8706 16.0814C32.0734 16.2842 32.2002 16.5508 32.2296 16.8362C32.2589 17.1215 32.189 17.4083 32.0317 17.6482C31.542 18.3588 31.0076 19.0375 30.4317 19.6802C29.8397 20.3202 29.2637 20.9442 28.6557 21.5522C28.0477 22.1602 27.4237 22.7522 26.7677 23.3122C26.1117 23.8722 25.4557 24.4322 24.7517 24.9122C24.4816 25.0991 24.1487 25.172 23.8253 25.1151C23.5018 25.0582 23.2138 24.8761 23.0237 24.6082C22.8845 24.3984 22.813 24.1509 22.8187 23.8992C22.8244 23.6475 22.9071 23.4035 23.0557 23.2002Z" fill="#14181F"/>
<path d="M17.6642 15.9041C18.3663 16.3984 19.0394 16.9326 19.6802 17.5041C20.3362 18.0481 20.9442 18.6721 21.5682 19.2481C22.1922 19.8241 22.7682 20.4961 23.3442 21.1201C23.9188 21.7807 24.4531 22.4752 24.9442 23.2001C25.1303 23.4747 25.2011 23.8114 25.1413 24.1376C25.0814 24.4639 24.8957 24.7536 24.6242 24.9441C24.4152 25.0818 24.1704 25.1551 23.9202 25.1551C23.6699 25.1551 23.4252 25.0818 23.2162 24.9441C22.5117 24.4462 21.8335 23.9121 21.1842 23.3441C20.5442 22.7468 19.9202 22.1654 19.3122 21.6001C18.7362 20.9761 18.1122 20.3841 17.5522 19.7281C16.9841 19.0788 16.4501 18.4006 15.9522 17.6961C15.8567 17.5641 15.7885 17.4144 15.7513 17.2558C15.7141 17.0971 15.7087 16.9327 15.7355 16.772C15.7623 16.6113 15.8207 16.4575 15.9073 16.3195C15.9939 16.1815 16.1071 16.0621 16.2402 15.9681C16.4444 15.8175 16.6889 15.7309 16.9424 15.7196C17.196 15.7082 17.4472 15.7724 17.6642 15.9041Z" fill="#14181F"/>
<path d="M24.9444 24.7999C24.4485 25.5039 23.8884 26.1599 23.3444 26.8159C22.8004 27.4719 22.1604 28.0639 21.5844 28.7039C21.0084 29.3439 20.3524 29.8879 19.7124 30.4639C19.0632 31.0319 18.3849 31.566 17.6804 32.0639C17.4405 32.2212 17.1538 32.2911 16.8684 32.2617C16.583 32.2324 16.3164 32.1056 16.1136 31.9028C15.9107 31.6999 15.7839 31.4333 15.7546 31.148C15.7252 30.8626 15.7951 30.5758 15.9524 30.3359C16.4422 29.6253 16.9766 28.9466 17.5524 28.3039C18.1444 27.6639 18.7204 27.0399 19.3284 26.4319C19.9364 25.8239 20.5604 25.2319 21.2164 24.6719C21.8724 24.1119 22.5284 23.5519 23.2324 23.0719C23.5025 22.885 23.8354 22.8121 24.1589 22.869C24.4824 22.9259 24.7704 23.108 24.9605 23.3759C25.1055 23.5857 25.1819 23.8354 25.179 24.0904C25.1762 24.3455 25.0942 24.5934 24.9444 24.7999Z" fill="#14181F"/>
</svg>
