<svg width="209" height="40" viewBox="0 0 209 40" fill="none" xmlns="http://www.w3.org/2000/svg">
<g clip-path="url(#clip0_2480_17442)">
<path d="M9.09509 0H2.28761C1.6809 0 1.09904 0.236948 0.670029 0.658766C0.241017 1.08058 0 1.65263 0 2.24916V15.6358C-2.77264e-07 15.9312 0.0591678 16.2237 0.174131 16.4966C0.289094 16.7695 0.457597 17.0174 0.670023 17.2262C0.882446 17.4351 1.13463 17.6009 1.41218 17.7139C1.68972 17.827 1.9872 17.8851 2.28761 17.8851H9.09509C11.5073 17.8851 13.8207 16.9429 15.5263 15.2659C17.232 13.5888 18.1902 11.3143 18.1902 8.94255C18.1902 6.57084 17.232 4.29621 15.5263 2.61916C13.8207 0.942096 11.5073 0 9.09509 0Z" fill="#F4C345"/>
<path d="M15.1557 4.47119H8.34816C8.04775 4.47119 7.75028 4.52935 7.47273 4.6424C7.19518 4.75544 6.94301 4.92109 6.73057 5.12995C6.51815 5.33882 6.34965 5.58678 6.23468 5.85968C6.11971 6.13256 6.06055 6.42509 6.06055 6.72047V20.107C6.06055 20.7035 6.30157 21.2757 6.73057 21.6975C7.15957 22.1194 7.74145 22.3562 8.34816 22.3562H15.1557C16.35 22.3562 17.5327 22.1251 18.6362 21.6757C19.7396 21.2263 20.7424 20.5675 21.5868 19.7371C22.4314 18.9067 23.1014 17.9209 23.5583 16.8359C24.0155 15.7509 24.2507 14.5881 24.2507 13.4137C24.2507 11.042 23.2926 8.76749 21.5868 7.09044C19.8812 5.41339 17.5678 4.47119 15.1557 4.47119Z" fill="#FF7E69"/>
<path d="M21.224 8.94287H14.4165C14.1161 8.94287 13.8186 9.00103 13.5411 9.11406C13.2635 9.22711 13.0114 9.39277 12.7989 9.60163C12.5865 9.8105 12.418 10.0585 12.303 10.3314C12.1881 10.6042 12.1289 10.8967 12.1289 11.192V24.5787C12.1289 25.1753 12.3699 25.7473 12.7989 26.1691C13.228 26.5911 13.8098 26.8279 14.4165 26.8279H21.224C23.6362 26.8279 25.9496 25.8857 27.6552 24.2087C29.3608 22.5317 30.3191 20.2572 30.3191 17.8854C30.3191 15.5137 29.3608 13.2391 27.6552 11.562C25.9496 9.88497 23.6362 8.94287 21.224 8.94287Z" fill="#391145"/>
<path d="M27.2845 13.4141H20.4771C19.8703 13.4141 19.2884 13.651 18.8595 14.0728C18.4305 14.4946 18.1895 15.0668 18.1895 15.6633V29.0499C18.1895 29.6465 18.4305 30.2185 18.8595 30.6403C19.2884 31.0623 19.8703 31.2991 20.4771 31.2991H27.2845C29.6968 31.2991 32.0101 30.3569 33.7157 28.6799C35.4213 27.003 36.3796 24.7284 36.3796 22.3566C36.3796 19.9849 35.4213 17.7104 33.7157 16.0333C32.0101 14.3563 29.6968 13.4141 27.2845 13.4141Z" fill="#52A8CE"/>
<path d="M27.7815 39.8018L30.9665 36.7746C31.2432 36.512 31.5775 36.3154 31.9437 36.1999C32.3099 36.0846 32.6981 36.0536 33.0785 36.1092L37.3859 36.7374C37.525 36.7582 37.6673 36.7382 37.7948 36.6796C37.9224 36.621 38.0294 36.5267 38.1023 36.4086C38.1755 36.2903 38.2112 36.1534 38.2053 36.0152C38.1992 35.8769 38.1518 35.7436 38.0689 35.6319L27.861 21.9434C27.7719 21.824 27.6468 21.7352 27.5035 21.6897C27.3602 21.6443 27.2059 21.6444 27.0628 21.6903C26.9195 21.7361 26.7946 21.8249 26.7059 21.9445C26.6171 22.0642 26.5689 22.2082 26.5684 22.3564V39.2993C26.5689 39.4373 26.6106 39.572 26.6885 39.6867C26.7663 39.8014 26.8767 39.8912 27.006 39.9447C27.1352 39.9982 27.2777 40.0133 27.4156 39.9879C27.5534 39.9626 27.6806 39.8978 27.7815 39.8018Z" fill="#391145"/>
<path d="M59.6384 24.6244L60.0587 27.0705H63.8908V8.42139H59.4656V15.0334C58.7486 13.6044 57.3887 12.7567 55.3119 12.7567C53.1363 12.7567 51.3562 13.7255 50.392 15.76C49.8976 16.8014 49.6504 18.0609 49.6504 19.6595V20.0711C49.6504 24.9151 51.8011 27.337 55.2873 27.337C57.5123 27.337 58.9215 26.2713 59.6384 24.6244ZM56.7705 23.583C55.2378 23.583 54.1746 22.59 54.1746 20.0469V19.732C54.1746 17.5281 55.1637 16.3897 56.8448 16.3897C58.4765 16.3897 59.5148 17.6007 59.5148 19.732V20.0469C59.5148 22.4204 58.427 23.583 56.7705 23.583Z" fill="#391145"/>
<path d="M80.2437 22.6142H75.4721C75.1507 23.4133 74.4337 23.9461 73.1729 23.9461C71.4174 23.9461 70.4534 23.0743 70.2308 21.3305H80.3427V19.7562C80.3427 17.1889 79.3783 15.0091 77.2522 13.7012C76.189 13.0473 74.8046 12.7324 73.1234 12.7324C70.1319 12.7324 67.9068 13.9192 66.6706 16.099C66.0525 17.1646 65.7559 18.4483 65.7559 19.9741V20.3859C65.7559 24.7453 68.055 27.4338 73.0493 27.4338C77.2522 27.4338 79.4526 25.569 80.2437 22.6142ZM73.1729 16.0748C74.854 16.0748 75.6946 16.9709 75.8923 18.5695H70.2308C70.5275 16.8741 71.5163 16.0748 73.1729 16.0748Z" fill="#391145"/>
<path d="M88.3892 27.4577C91.3807 27.4577 93.3091 26.5375 94.2981 25.0844C94.7757 24.3287 95.0245 23.4551 95.0151 22.5655C95.0151 20.9185 94.2981 19.9497 93.235 19.3685C92.1472 18.7871 90.8368 18.545 89.576 18.3754C87.4498 18.109 86.2383 17.9637 86.2383 17.0918C86.2383 16.4136 86.7329 15.9051 88.1173 15.9051C89.4523 15.9051 90.2188 16.3894 90.4165 17.4067H94.842C94.4217 14.5729 92.518 12.708 88.1668 12.708C84.0873 12.708 81.9117 14.5972 81.9117 17.3582C81.9117 19.0536 82.6041 20.0224 83.6919 20.5794C84.755 21.1606 86.0652 21.3786 87.3014 21.5482C88.4882 21.6693 89.576 21.8147 90.1693 22.1294C90.3115 22.192 90.4318 22.2943 90.5153 22.4235C90.5988 22.5527 90.642 22.7031 90.6391 22.8562C90.6391 23.6312 90.0457 24.0913 88.6118 24.0913C87.1283 24.0913 86.2631 23.5101 85.9664 22.3717H81.3184C81.7881 25.6171 84.0873 27.4577 88.3892 27.4577Z" fill="#391145"/>
<path d="M99.0445 12.2241C100.899 12.2241 101.739 11.6428 101.739 10.0443C101.739 8.39735 100.825 7.84033 99.0445 7.84033C97.215 7.84033 96.3496 8.39735 96.3496 10.0443C96.3496 11.6912 97.0666 12.2241 99.0445 12.2241Z" fill="#391145"/>
<path d="M109.752 33.0044H109.951C115.389 33.0044 117.689 31.0668 117.689 27.9909C117.689 25.3509 115.884 23.7766 111.854 23.7766H108.788C107.231 23.7766 106.786 23.6073 106.786 23.1227C106.786 22.7596 106.959 22.5657 107.726 22.4446C108.097 22.4204 108.64 22.3719 109.357 22.3719H110.197C114.5 22.3719 116.947 20.725 116.947 17.5523V17.4554C116.947 15.3241 115.637 13.895 113.189 13.4106C115.266 13.4106 116.354 13.1442 116.774 12.3449C117.03 11.7992 117.148 11.2013 117.121 10.6012V10.1895H112.275V10.6739C112.275 11.8364 112.151 12.4177 111.558 12.6357C111.095 12.7852 110.61 12.8588 110.123 12.8536L109.752 12.8778C106.019 12.999 103.597 14.5248 103.597 17.5038V17.528C103.597 19.5141 104.536 20.7492 106.316 21.4031C104.338 21.815 103.226 22.8807 103.226 24.5276C103.226 26.0534 104.239 26.9979 106.069 27.2886C103.943 27.6762 102.979 28.5965 102.979 30.0012C102.979 31.2606 103.646 32.1567 105.599 32.6411C106.588 32.9075 107.973 33.0044 109.752 33.0044ZM110.247 19.4657C108.912 19.4657 108.072 18.9087 108.072 17.6734V17.5765C108.072 16.2444 109.011 15.6388 110.272 15.6388C111.533 15.6388 112.448 16.1233 112.448 17.5523V17.6491C112.448 18.8842 111.607 19.4657 110.247 19.4657ZM110.321 29.9043H109.703C107.75 29.9043 107.058 29.3472 107.058 28.6933V28.669C107.058 27.9182 107.948 27.4581 109.431 27.3855H111.632C113.288 27.3855 113.807 27.7973 113.807 28.4512C113.808 29.2989 112.843 29.9043 110.321 29.9043Z" fill="#391145"/>
<path d="M123.365 27.0711V19.7325C123.365 17.7949 123.983 16.5355 125.714 16.5355C127.37 16.5355 127.815 17.6495 127.815 19.3933V27.0711H132.364V18.1339C132.364 14.719 130.708 12.7329 127.494 12.7329C125.268 12.7329 123.81 13.7744 123.043 15.3971L122.623 13.0235H118.791V27.0711H123.365Z" fill="#391145"/>
<path d="M140.685 27.4582C143.676 27.4582 145.604 26.538 146.593 25.0849C147.071 24.3292 147.319 23.4554 147.31 22.566C147.31 20.919 146.593 19.9502 145.53 19.369C144.442 18.7876 143.132 18.5455 141.871 18.3759C139.745 18.1095 138.533 17.9642 138.533 17.0923C138.533 16.4141 139.028 15.9056 140.412 15.9056C141.747 15.9056 142.514 16.3899 142.711 17.4071H147.137C146.717 14.5734 144.813 12.7085 140.462 12.7085C136.382 12.7085 134.206 14.5976 134.206 17.3587C134.206 19.0541 134.899 20.0229 135.987 20.5799C137.05 21.1611 138.36 21.3791 139.597 21.5487C140.783 21.6698 141.871 21.8152 142.464 22.1299C142.606 22.1925 142.727 22.2946 142.81 22.4238C142.894 22.553 142.937 22.7036 142.934 22.8567C142.934 23.6317 142.34 24.0918 140.907 24.0918C139.423 24.0918 138.558 23.5106 138.262 22.3722H133.613C134.083 25.6176 136.382 27.4582 140.685 27.4582Z" fill="#391145"/>
<path d="M158.04 27.0705V22.9773H157.126C155.691 22.9773 155.074 22.832 154.801 22.0812C154.673 21.4925 154.615 20.891 154.628 20.2889V16.9225H158.04V13.023H154.628V9.51123H150.92C150.895 10.0925 150.846 10.8433 150.772 11.4246C150.648 12.6356 150.301 12.9989 149.362 13.12C148.9 13.22 148.427 13.2687 147.953 13.2653V16.9225H150.376V21.161C150.376 24.0915 150.87 25.7385 152.428 26.5135C153.219 26.8769 154.307 27.0705 155.766 27.0705H158.04Z" fill="#391145"/>
<path d="M159.93 27.0708H164.528V20.8464C164.528 19.151 164.825 18.2064 165.764 17.7946C166.409 17.5448 167.1 17.4293 167.792 17.4555H169.473V12.8296H168.657C166.061 12.8296 164.627 13.7015 164.158 15.9055L163.539 13.0233H159.93V27.0708Z" fill="#391145"/>
<path d="M187.101 27.3369C189.277 27.3369 191.033 26.3682 191.997 24.3337C192.491 23.2924 192.74 22.0328 192.74 20.4343V20.0225C192.74 15.1786 190.612 12.7324 187.077 12.7324C184.901 12.7324 183.468 13.7981 182.751 15.4451L182.33 13.0231H178.498V31.8661H182.923V25.036C183.64 26.4892 184.975 27.3369 187.101 27.3369ZM185.569 23.6556C183.937 23.6556 182.874 22.4929 182.874 20.3132V19.9983C182.874 17.6248 183.962 16.4623 185.594 16.4623C187.151 16.4623 188.288 17.5279 188.288 20.0225V20.3617C188.288 22.5656 187.225 23.6556 185.569 23.6556Z" fill="#391145"/>
<path d="M208.883 22.6142H204.113C203.79 23.4133 203.074 23.9461 201.813 23.9461C200.057 23.9461 199.092 23.0743 198.871 21.3305H208.983V19.7562C208.983 17.1889 208.018 15.0091 205.891 13.7012C204.829 13.0473 203.444 12.7324 201.763 12.7324C198.771 12.7324 196.548 13.9192 195.31 16.099C194.693 17.1646 194.396 18.4483 194.396 19.9741V20.3859C194.396 24.7453 196.695 27.4338 201.689 27.4338C205.891 27.4338 208.092 25.569 208.883 22.6142ZM201.813 16.0748C203.494 16.0748 204.335 16.9709 204.531 18.5695H198.871C199.167 16.8741 200.156 16.0748 201.813 16.0748Z" fill="#391145"/>
<path d="M173.699 12.2241C175.553 12.2241 176.394 11.6428 176.394 10.0443C176.394 8.39735 175.479 7.84033 173.699 7.84033C171.869 7.84033 171.004 8.39735 171.004 10.0443C171.004 11.6912 171.721 12.2241 173.699 12.2241Z" fill="#391145"/>
<path d="M171.352 13.1348V27.0711H176.024V13.1348C174.482 13.4396 172.894 13.4396 171.352 13.1348Z" fill="#391145"/>
<path d="M96.6953 13.1348V27.0711H101.368V13.1348C99.8259 13.4396 98.2374 13.4396 96.6953 13.1348Z" fill="#391145"/>
</g>
<defs>
<clipPath id="clip0_2480_17442">
<rect width="209" height="40" fill="white"/>
</clipPath>
</defs>
</svg>
