<svg width="136" height="26" viewBox="0 0 136 26" fill="none" xmlns="http://www.w3.org/2000/svg">
<g clip-path="url(#clip0_1988_13714)">
<path d="M5.91834 0H1.48859C1.09379 0 0.715165 0.154016 0.435999 0.428198C0.156834 0.70238 0 1.07421 0 1.46196V10.1633C-1.80421e-07 10.3553 0.0385016 10.5454 0.11331 10.7228C0.188119 10.9002 0.297767 11.0613 0.435996 11.1971C0.574223 11.3328 0.738325 11.4406 0.918929 11.514C1.09953 11.5875 1.29311 11.6253 1.48859 11.6253H5.91834C7.48798 11.6253 8.99334 11.0129 10.1032 9.92281C11.2132 8.83273 11.8367 7.35428 11.8367 5.81266C11.8367 4.27104 11.2132 2.79253 10.1032 1.70245C8.99334 0.612362 7.48798 0 5.91834 0Z" fill="#F4C345"/>
<path d="M9.86171 2.90637H5.43195C5.23647 2.90637 5.0429 2.94418 4.86229 3.01766C4.68169 3.09113 4.51759 3.19881 4.37935 3.33457C4.24113 3.47033 4.13148 3.6315 4.05667 3.80889C3.98186 3.98626 3.94336 4.1764 3.94336 4.3684V13.0697C3.94336 13.4574 4.10019 13.8293 4.37935 14.1035C4.65852 14.3777 5.03715 14.5317 5.43195 14.5317H9.86171C10.6389 14.5317 11.4085 14.3814 12.1266 14.0893C12.8446 13.7972 13.4971 13.369 14.0466 12.8292C14.5961 12.2894 15.0321 11.6487 15.3295 10.9434C15.627 10.2382 15.78 9.48236 15.78 8.71903C15.78 7.17742 15.1566 5.69897 14.0466 4.60888C12.9367 3.5188 11.4313 2.90637 9.86171 2.90637Z" fill="#FF7E69"/>
<path d="M13.8109 5.81287H9.38118C9.1857 5.81287 8.99211 5.85067 8.81151 5.92414C8.63091 5.99762 8.46681 6.1053 8.32857 6.24106C8.19035 6.37682 8.0807 6.538 8.00589 6.71538C7.93109 6.89276 7.89258 7.08283 7.89258 7.27482V15.9762C7.89258 16.364 8.04941 16.7358 8.32857 17.0099C8.60775 17.2842 8.98636 17.4381 9.38116 17.4381H13.8109C15.3806 17.4381 16.8859 16.8257 17.9958 15.7357C19.1057 14.6456 19.7292 13.1672 19.7292 11.6255C19.7292 10.0839 19.1057 8.6054 17.9958 7.51532C16.8859 6.42523 15.3806 5.81287 13.8109 5.81287Z" fill="#391145"/>
<path d="M17.7542 8.71912H13.3245C12.9297 8.71912 12.551 8.87314 12.2719 9.14731C11.9928 9.4215 11.8359 9.79339 11.8359 10.1811V18.8824C11.8359 19.2702 11.9928 19.642 12.2719 19.9162C12.551 20.1905 12.9297 20.3444 13.3245 20.3444H17.7542C19.3239 20.3444 20.8293 19.732 21.9391 18.6419C23.049 17.5519 23.6726 16.0734 23.6726 14.5317C23.6726 12.9902 23.049 11.5117 21.9391 10.4216C20.8293 9.33154 19.3239 8.71912 17.7542 8.71912Z" fill="#52A8CE"/>
<path d="M18.0785 25.8711L20.151 23.9034C20.331 23.7328 20.5486 23.605 20.7869 23.5299C21.0252 23.4549 21.2778 23.4348 21.5253 23.4709L24.3282 23.8792C24.4187 23.8928 24.5114 23.8797 24.5943 23.8416C24.6773 23.8036 24.7469 23.7423 24.7944 23.6655C24.842 23.5886 24.8653 23.4996 24.8614 23.4098C24.8575 23.3199 24.8266 23.2333 24.7727 23.1606L18.1302 14.2631C18.0722 14.1855 17.9908 14.1278 17.8976 14.0982C17.8043 14.0687 17.7039 14.0688 17.6108 14.0986C17.5176 14.1284 17.4363 14.1861 17.3786 14.2639C17.3208 14.3416 17.2894 14.4353 17.2891 14.5316V25.5445C17.2894 25.6342 17.3165 25.7217 17.3673 25.7963C17.4179 25.8709 17.4897 25.9292 17.5739 25.964C17.6579 25.9988 17.7506 26.0086 17.8404 25.9921C17.93 25.9756 18.0128 25.9335 18.0785 25.8711Z" fill="#391145"/>
<path d="M38.808 16.0059L39.0815 17.596H41.5751V5.474H38.6955V9.77179C38.2289 8.84298 37.3441 8.29197 35.9927 8.29197C34.577 8.29197 33.4186 8.9217 32.7912 10.2441C32.4695 10.921 32.3086 11.7397 32.3086 12.7788V13.0463C32.3086 16.1949 33.7081 17.7692 35.9766 17.7692C37.4245 17.7692 38.3414 17.0764 38.808 16.0059ZM36.9418 15.3291C35.9444 15.3291 35.2526 14.6836 35.2526 13.0306V12.8259C35.2526 11.3933 35.8962 10.6534 36.9901 10.6534C38.0519 10.6534 38.7276 11.4406 38.7276 12.8259V13.0306C38.7276 14.5734 38.0197 15.3291 36.9418 15.3291Z" fill="#391145"/>
<path d="M52.2166 14.6994H49.1116C48.9025 15.2188 48.4359 15.5651 47.6154 15.5651C46.4731 15.5651 45.8458 14.9985 45.701 13.865H52.281V12.8417C52.281 11.173 51.6534 9.7561 50.2699 8.90596C49.5781 8.48091 48.6772 8.27625 47.5832 8.27625C45.6366 8.27625 44.1887 9.04765 43.3843 10.4645C42.9821 11.1572 42.7891 11.9916 42.7891 12.9833V13.251C42.7891 16.0846 44.2852 17.8321 47.535 17.8321C50.2699 17.8321 51.7018 16.62 52.2166 14.6994ZM47.6154 10.4488C48.7094 10.4488 49.2564 11.0313 49.3851 12.0703H45.701C45.8941 10.9683 46.5375 10.4488 47.6154 10.4488Z" fill="#391145"/>
<path d="M57.5162 17.8477C59.4628 17.8477 60.7176 17.2496 61.3612 16.305C61.672 15.8138 61.8338 15.246 61.8278 14.6677C61.8278 13.5972 61.3612 12.9675 60.6694 12.5897C59.9616 12.2118 59.1089 12.0544 58.2884 11.9442C56.9049 11.771 56.1165 11.6766 56.1165 11.1098C56.1165 10.669 56.4384 10.3385 57.3393 10.3385C58.208 10.3385 58.7067 10.6533 58.8354 11.3145H61.7151C61.4416 9.47259 60.2028 8.26038 57.3715 8.26038C54.7169 8.26038 53.3012 9.48832 53.3012 11.283C53.3012 12.385 53.7517 13.0147 54.4595 13.3768C55.1513 13.7546 56.0039 13.8963 56.8083 14.0065C57.5806 14.0852 58.2884 14.1797 58.6745 14.3843C58.767 14.425 58.8453 14.4915 58.8997 14.5755C58.954 14.6594 58.9821 14.7572 58.9802 14.8567C58.9802 15.3605 58.5941 15.6595 57.661 15.6595C56.6957 15.6595 56.1327 15.2817 55.9396 14.5418H52.915C53.2207 16.6513 54.7169 17.8477 57.5162 17.8477Z" fill="#391145"/>
<path d="M64.4499 7.94578C65.6566 7.94578 66.2034 7.56791 66.2034 6.52889C66.2034 5.45837 65.6082 5.09631 64.4499 5.09631C63.2594 5.09631 62.6963 5.45837 62.6963 6.52889C62.6963 7.59941 63.1628 7.94578 64.4499 7.94578Z" fill="#391145"/>
<path d="M71.4177 21.453H71.5468C75.0857 21.453 76.5819 20.1936 76.5819 18.1942C76.5819 16.4782 75.4076 15.455 72.7852 15.455H70.7903C69.7769 15.455 69.4872 15.3449 69.4872 15.0299C69.4872 14.7939 69.6 14.6679 70.0987 14.5891C70.3402 14.5734 70.6938 14.5419 71.1604 14.5419H71.7072C74.5069 14.5419 76.0995 13.4714 76.0995 11.4091V11.3461C76.0995 9.96079 75.2466 9.03193 73.654 8.71706C75.0057 8.71706 75.7135 8.5439 75.9868 8.02436C76.1531 7.66965 76.2304 7.28102 76.2123 6.89093V6.62329H73.0589V6.93817C73.0589 7.69383 72.9784 8.07165 72.5924 8.21334C72.2914 8.31054 71.976 8.35838 71.6591 8.355L71.4177 8.37075C68.9885 8.44947 67.4119 9.44129 67.4119 11.3776V11.3934C67.4119 12.6843 68.0233 13.4871 69.1818 13.9122C67.8946 14.1799 67.1706 14.8726 67.1706 15.9431C67.1706 16.9349 67.8302 17.5488 69.0208 17.7377C67.6372 17.9897 67.0098 18.5879 67.0098 19.5009C67.0098 20.3195 67.4441 20.902 68.7152 21.2168C69.3586 21.39 70.2597 21.453 71.4177 21.453ZM71.7396 12.6528C70.8707 12.6528 70.3239 12.2908 70.3239 11.4879V11.4249C70.3239 10.559 70.9353 10.1654 71.7559 10.1654C72.5761 10.1654 73.1715 10.4803 73.1715 11.4091V11.472C73.1715 12.2749 72.6243 12.6528 71.7396 12.6528ZM71.7878 19.438H71.3858C70.1146 19.438 69.6641 19.0758 69.6641 18.6508V18.635C69.6641 18.147 70.2433 17.8479 71.2086 17.8007H72.6406C73.7185 17.8007 74.0563 18.0684 74.0563 18.4934C74.0564 19.0444 73.429 19.438 71.7878 19.438Z" fill="#391145"/>
<path d="M80.2749 17.5962V12.8261C80.2749 11.5667 80.6773 10.748 81.8035 10.748C82.8814 10.748 83.1709 11.4722 83.1709 12.6056V17.5962H86.1311V11.787C86.1311 9.56732 85.0532 8.27637 82.9618 8.27637C81.5138 8.27637 80.5646 8.95332 80.0658 10.0081L79.7926 8.46528H77.2988V17.5962H80.2749Z" fill="#391145"/>
<path d="M91.5457 17.8477C93.4921 17.8477 94.7468 17.2495 95.3905 16.305C95.7013 15.8138 95.863 15.2458 95.857 14.6677C95.857 13.5972 95.3905 12.9675 94.6987 12.5897C93.9907 12.2118 93.1383 12.0544 92.3177 11.9442C90.9342 11.771 90.1459 11.6766 90.1459 11.1098C90.1459 10.669 90.4678 10.3385 91.3684 10.3385C92.2373 10.3385 92.736 10.6533 92.8647 11.3145H95.7443C95.4711 9.47259 94.2321 8.26038 91.4006 8.26038C88.7461 8.26038 87.3303 9.48832 87.3303 11.283C87.3303 12.385 87.7809 13.0147 88.4887 13.3768C89.1806 13.7546 90.0332 13.8963 90.8379 14.0065C91.6099 14.0852 92.3177 14.1797 92.7037 14.3843C92.7962 14.425 92.8746 14.4914 92.9289 14.5753C92.9834 14.6593 93.0114 14.7572 93.0096 14.8567C93.0096 15.3605 92.6233 15.6595 91.6903 15.6595C90.7251 15.6595 90.1618 15.2817 89.969 14.5418H86.9443C87.2503 16.6513 88.7462 17.8477 91.5457 17.8477Z" fill="#391145"/>
<path d="M102.839 17.5959V14.9353H102.244C101.311 14.9353 100.909 14.8409 100.731 14.3528C100.648 13.9702 100.611 13.5792 100.619 13.1878V10.9997H102.839V8.46505H100.619V6.18237H98.2059C98.1896 6.56019 98.1577 7.04821 98.1094 7.42604C98.029 8.21318 97.8035 8.44933 97.1925 8.52805C96.8914 8.59305 96.5837 8.62475 96.2754 8.62253V10.9997H97.8517V13.7547C97.8517 15.6596 98.1736 16.7301 99.187 17.2338C99.702 17.47 100.41 17.5959 101.359 17.5959H102.839Z" fill="#391145"/>
<path d="M104.069 17.596H107.062V13.5502C107.062 12.4482 107.255 11.8341 107.866 11.5665C108.286 11.4041 108.735 11.3291 109.185 11.3461H110.279V8.33923H109.748C108.059 8.33923 107.126 8.90597 106.82 10.3386L106.418 8.46514H104.069V17.596Z" fill="#391145"/>
<path d="M121.751 17.7691C123.167 17.7691 124.309 17.1395 124.936 15.8171C125.258 15.1402 125.42 14.3215 125.42 13.2825V13.0148C125.42 9.86627 124.035 8.27625 121.735 8.27625C120.319 8.27625 119.386 8.96893 118.92 10.0395L118.646 8.46515H116.152V20.7131H119.032V16.2736C119.499 17.2181 120.367 17.7691 121.751 17.7691ZM120.754 15.3763C119.692 15.3763 119 14.6206 119 13.2038V12.9991C119 11.4563 119.708 10.7007 120.77 10.7007C121.783 10.7007 122.523 11.3933 122.523 13.0148V13.2353C122.523 14.6678 121.831 15.3763 120.754 15.3763Z" fill="#391145"/>
<path d="M135.924 14.6994H132.82C132.61 15.2188 132.143 15.5651 131.323 15.5651C130.181 15.5651 129.553 14.9985 129.409 13.865H135.988V12.8417C135.988 11.173 135.361 9.7561 133.977 8.90596C133.286 8.48091 132.385 8.27625 131.291 8.27625C129.344 8.27625 127.897 9.04765 127.091 10.4645C126.69 11.1572 126.497 11.9916 126.497 12.9833V13.251C126.497 16.0846 127.993 17.8321 131.242 17.8321C133.977 17.8321 135.409 16.62 135.924 14.6994ZM131.323 10.4488C132.417 10.4488 132.964 11.0313 133.092 12.0703H129.409C129.601 10.9683 130.245 10.4488 131.323 10.4488Z" fill="#391145"/>
<path d="M113.029 7.94578C114.236 7.94578 114.783 7.56791 114.783 6.52889C114.783 5.45837 114.187 5.09631 113.029 5.09631C111.839 5.09631 111.275 5.45837 111.275 6.52889C111.275 7.59941 111.742 7.94578 113.029 7.94578Z" fill="#391145"/>
<path d="M111.501 8.5376V17.5962H114.542V8.5376C113.538 8.73576 112.504 8.73576 111.501 8.5376Z" fill="#391145"/>
<path d="M62.9219 8.5376V17.5962H65.9625V8.5376C64.959 8.73576 63.9253 8.73576 62.9219 8.5376Z" fill="#391145"/>
</g>
<defs>
<clipPath id="clip0_1988_13714">
<rect width="136" height="26" fill="white"/>
</clipPath>
</defs>
</svg>
