<svg width="48" height="48" viewBox="0 0 48 48" fill="none" xmlns="http://www.w3.org/2000/svg">
<circle cx="24" cy="24" r="23.5" fill="white" stroke="#CCD1D6"/>
<path fill-rule="evenodd" clip-rule="evenodd" d="M23.9029 13.6055L30.2472 14.2415L35.589 21.1547L23.9094 34.4549L12.2188 21.1587L17.4815 14.2414L23.9029 13.6055ZM16.9766 17.5303L16.8285 20.3374H14.8409L16.9766 17.5303ZM14.9923 21.9088L20.1644 27.7913L17.0989 21.9088H14.9923ZM18.8963 21.9088L23.9091 31.5278L28.9218 21.9088H18.8963ZM30.7192 21.9088L27.6616 27.7761L32.814 21.9088H30.7192ZM32.9489 20.3374H30.9792L30.7928 17.547L32.9489 20.3374ZM29.066 15.7027L25.925 15.3878L29.2836 18.9589L29.066 15.7027ZM28.402 20.3374L23.9031 15.5538L19.4136 20.3374H28.402ZM18.5017 18.9904L18.6751 15.7026L21.8858 15.3846L18.5017 18.9904Z" fill="#14181F"/>
</svg>
