<svg width="16" height="14" viewBox="0 0 16 14" fill="none" xmlns="http://www.w3.org/2000/svg">
<path d="M3.92073 13.0906V4.58771H0.787132V13.0906H3.92073ZM2.33708 3.4502C3.34792 3.4502 4.15659 2.73925 4.15659 1.88611C4.15659 1.06141 3.34792 0.378906 2.33708 0.378906C1.35994 0.378906 0.55127 1.06141 0.55127 1.88611C0.55127 2.73925 1.35994 3.4502 2.33708 3.4502ZM15.6127 13.0906H15.6464V8.42682C15.6464 6.15179 15.0399 4.38864 11.8726 4.38864C10.3564 4.38864 9.34555 5.09959 8.90752 5.75366H8.87383V4.58771H5.87501V13.0906H9.00861V8.88183C9.00861 7.77275 9.24447 6.72055 10.8618 6.72055C12.4791 6.72055 12.5128 7.97182 12.5128 8.96714V13.0906H15.6127Z" fill="#14181F"/>
</svg>
