<svg width="113" height="22" viewBox="0 0 113 22" fill="none" xmlns="http://www.w3.org/2000/svg">
<g clip-path="url(#clip0_80_5618)">
<path d="M0 0H8.07995C15.0326 0 18.9459 4.43189 18.9459 11.0026C18.9459 17.1722 14.9333 21.6915 8.16937 21.6915H0V0ZM4.03749 17.8817H8.07995C12.5992 17.8817 14.9035 14.874 14.9035 11.0026C14.9035 6.57071 12.5396 3.77892 8.02036 3.77892H4.04743L4.03749 17.8817Z" fill="#14181F"/>
<path d="M25.9489 7.00262V8.89466C26.2334 8.21173 26.7125 7.63504 27.3223 7.24178C27.932 6.84852 28.6432 6.65745 29.3607 6.69414C31.9033 6.69414 33.433 8.52448 33.433 11.0335C33.4415 11.6491 33.3697 12.263 33.2194 12.8587H29.5991C29.6864 12.4939 29.7265 12.1187 29.7183 11.743C29.73 11.4974 29.6914 11.2521 29.605 11.0231C29.5187 10.7941 29.3865 10.5866 29.2172 10.4142C29.0479 10.2418 28.8453 10.1085 28.6227 10.0229C28.4 9.93736 28.1625 9.90154 27.9255 9.91779C26.7287 9.91779 25.939 10.7558 25.939 12.2417V21.6916H22.125V7.00262H25.9489Z" fill="#14181F"/>
<path d="M40.281 12.7353C41.0987 12.727 41.9138 12.8325 42.7044 13.0489L43.9609 13.3574V12.4268C43.9609 10.7867 42.8236 9.79439 41.0557 9.79439C40.3415 9.73858 39.6326 9.95738 39.0645 10.4089C38.4964 10.8604 38.1091 11.513 37.9767 12.2417L34.6543 11.3111C35.3992 8.45762 37.634 6.68384 41.1103 6.68384C45.4209 6.68384 47.6358 8.79181 47.6358 12.6324V21.6813H44.1595V19.4191C43.2309 21.126 41.7659 21.9898 39.4616 21.9898C37.0083 21.9898 34.7934 20.2571 34.7934 17.4345C34.7437 14.3188 36.9288 12.7353 40.281 12.7353ZM43.9609 16.144L43.0918 15.8664C42.376 15.6183 41.6308 15.473 40.8769 15.4345C39.4715 15.4345 38.6322 16.0515 38.6322 17.198C38.6322 18.3445 39.4119 18.9666 40.9365 18.9666C42.7045 18.9666 43.9609 17.9743 43.9609 16.2674V16.144Z" fill="#14181F"/>
<path d="M55.7542 17.9742L58.2373 7.00244H62.7069L65.1602 17.9742L67.7972 7.00244H71.5963L67.7078 21.6914H62.7665L60.4622 12.149L58.1281 21.6914H53.1619L49.2734 7.00244H53.1023L55.7542 17.9742Z" fill="#14181F"/>
<path d="M91.6055 21.6915H86.8181L80.7246 11.8046L77.2831 15.6504V21.6915H73.2754V0H77.3179V9.76864L85.9987 0H91.1536L83.461 8.64782L91.6055 21.6915Z" fill="#14181F"/>
<path d="M97.5164 7.00244V21.6914H93.6875V7.00244H97.5164Z" fill="#14181F"/>
<path d="M102.371 10.2571H99.4414V7.00258H102.371V2.16968H106.176V7.00258H111.514V10.2571H106.185V16.7147C106.162 16.9442 106.187 17.1763 106.259 17.3949C106.331 17.6135 106.447 17.8135 106.6 17.981C106.754 18.1486 106.94 18.2798 107.147 18.3656C107.354 18.4514 107.577 18.4898 107.799 18.4782C108.793 18.4782 109.359 17.7995 109.478 16.4216L113.009 17.1003C112.622 20.1851 110.705 21.964 107.71 21.964C104.269 21.964 102.381 19.9075 102.381 16.6992L102.371 10.2571Z" fill="#14181F"/>
<path d="M95.6039 4.61184C96.6763 4.61184 97.5456 3.75324 97.5456 2.6941C97.5456 1.63497 96.6763 0.776367 95.6039 0.776367C94.5315 0.776367 93.6621 1.63497 93.6621 2.6941C93.6621 3.75324 94.5315 4.61184 95.6039 4.61184Z" fill="#F075C6"/>
</g>
<defs>
<clipPath id="clip0_80_5618">
<rect width="113" height="22" fill="white"/>
</clipPath>
</defs>
</svg>
