<svg width="19" height="18" viewBox="0 0 19 18" fill="none" xmlns="http://www.w3.org/2000/svg">
<g clip-path="url(#clip0_1858_13438)">
<path d="M4.11453 13.4298C4.88669 12.5049 5.62491 11.6988 6.40556 10.8503C7.1862 10.0018 8.02625 9.2296 8.78992 8.3641C9.5536 7.4986 10.4106 6.74341 11.2252 5.92883C12.0398 5.11424 12.9392 4.43541 13.8726 3.67174C14.0529 3.54163 14.2736 3.47995 14.4953 3.49775C14.7169 3.51555 14.925 3.61167 15.0822 3.76889C15.2394 3.92612 15.3355 4.13418 15.3533 4.35581C15.3711 4.57744 15.3095 4.79817 15.1793 4.97847C14.4157 5.91185 13.669 6.72644 12.8968 7.56648C12.1246 8.40653 11.2761 9.18717 10.5039 10.0442C9.73179 10.9012 8.88326 11.6649 8.01776 12.4285C7.15226 13.1922 6.31222 13.9983 5.42126 14.7365C5.23084 14.8884 4.98872 14.9601 4.74632 14.9363C4.50391 14.9125 4.28032 14.7952 4.12302 14.6093C3.98437 14.4445 3.90765 14.2364 3.9061 14.0211C3.90455 13.8057 3.97827 13.5966 4.11453 13.4298Z" fill="#14181F"/>
<path d="M6.53253 2.98354C7.24529 2.88172 7.94957 2.83929 8.65385 2.79686C9.35813 2.75444 10.0709 2.75444 10.7752 2.74595C11.4794 2.73747 12.1922 2.77141 12.905 2.80535C13.6177 2.83929 14.2796 2.8902 14.9499 3.05142C15.0707 3.07179 15.1861 3.11594 15.2897 3.18132C15.3932 3.2467 15.4827 3.33201 15.5529 3.43227C15.6232 3.53254 15.6728 3.64577 15.699 3.76539C15.7251 3.885 15.7272 4.00862 15.7051 4.12905C15.6713 4.31692 15.5808 4.48995 15.4458 4.62493C15.3108 4.75991 15.1378 4.85039 14.9499 4.88424C14.2696 4.99253 13.5843 5.06616 12.8965 5.10486C12.1922 5.13032 11.4794 5.14729 10.7752 5.1388C10.0709 5.13032 9.35813 5.11335 8.64536 5.06243C7.9326 5.01152 7.19438 4.90121 6.46465 4.74848C6.28431 4.67725 6.13055 4.55177 6.0246 4.38938C5.91865 4.22699 5.86575 4.03571 5.8732 3.84196C5.88065 3.64821 5.94809 3.46155 6.0662 3.30778C6.18431 3.15401 6.34725 3.04071 6.53253 2.98354Z" fill="#14181F"/>
<path d="M15.7988 3.90088C15.9133 4.6005 15.9898 5.30581 16.0279 6.01371C16.0788 6.72648 16.0788 7.43924 16.1043 8.14352C16.1297 8.8478 16.0958 9.56056 16.0703 10.2648C16.0449 10.9691 15.977 11.6819 15.8667 12.3862C15.817 12.6154 15.683 12.8176 15.4913 12.9527C15.2996 13.0879 15.0641 13.1461 14.8315 13.1159C14.653 13.0764 14.4895 12.9867 14.3602 12.8574C14.231 12.7282 14.1413 12.5647 14.1018 12.3862C13.9693 11.6762 13.8758 10.9596 13.8217 10.2394C13.7793 9.5351 13.7539 8.83083 13.7539 8.11806C13.7539 7.4053 13.7539 6.70951 13.8048 5.99674C13.8557 5.28398 13.8981 4.5797 13.9999 3.86694C14.0513 3.66499 14.1695 3.48634 14.3352 3.36C14.5009 3.23366 14.7045 3.16704 14.9128 3.17097C15.1212 3.1749 15.3221 3.24915 15.4829 3.38165C15.6438 3.51415 15.7551 3.69713 15.7988 3.90088Z" fill="#14181F"/>
</g>
<defs>
<clipPath id="clip0_1858_13438">
<rect width="18" height="18" fill="white" transform="translate(0.899109)"/>
</clipPath>
</defs>
</svg>
