<svg width="60" height="60" viewBox="0 0 60 60" fill="none" xmlns="http://www.w3.org/2000/svg">
<circle cx="30" cy="30" r="29.5" fill="white" stroke="#CCD1D6"/>
<path d="M36.5 22.79C33.9 27.34 28.89 29.95 23.67 29.48L20.5 29.19" stroke="#E14A84" stroke-width="2" stroke-miterlimit="10" stroke-linecap="round" stroke-linejoin="round"/>
<path d="M23.5 37.37C26.1 32.82 31.11 30.21 36.33 30.68L39.5 30.97" stroke="#E14A84" stroke-width="2" stroke-miterlimit="10" stroke-linecap="round" stroke-linejoin="round"/>
<path d="M30 40C35.5228 40 40 35.5228 40 30C40 24.4772 35.5228 20 30 20C24.4772 20 20 24.4772 20 30C20 35.5228 24.4772 40 30 40Z" stroke="#E14A84" stroke-width="2" stroke-miterlimit="10" stroke-linecap="round" stroke-linejoin="round"/>
<path d="M25.63 21L28.81 24.95C30.94 27.59 32.45 30.66 33.25 33.95L34.46 38.94" stroke="#E14A84" stroke-width="2" stroke-miterlimit="10" stroke-linecap="round" stroke-linejoin="round"/>
</svg>
