<svg width="142" height="46" viewBox="0 0 142 46" fill="none" xmlns="http://www.w3.org/2000/svg">
<path d="M17.7307 15.6975V20.4125H29.0139C28.6685 23.0575 27.7858 24.9933 26.4426 26.3542C24.7923 28.0025 22.2209 29.8042 17.7307 29.8042C10.7842 29.8042 5.35364 24.2075 5.35364 17.2692C5.35364 10.3308 10.7842 4.73417 17.7307 4.73417C21.4726 4.73417 24.2166 6.21 26.2315 8.1075L29.5512 4.79167C26.7496 2.07 22.9885 0 17.7307 0C8.21283 0 0.210938 7.74333 0.210938 17.25C0.210938 26.7567 8.21283 34.5 17.7307 34.5C22.8734 34.5 26.7496 32.8133 29.7815 29.67C32.8901 26.565 33.8688 22.1758 33.8688 18.6492C33.8688 17.5567 33.792 16.5408 33.6193 15.6975H17.7307V15.6975Z" fill="#14181F"/>
<path d="M47.9725 11.8643C41.8127 11.8643 36.7852 16.5409 36.7852 23.0001C36.7852 29.4018 41.8127 34.1359 47.9725 34.1359C54.1322 34.1359 59.1597 29.4209 59.1597 23.0001C59.1597 16.5409 54.1322 11.8643 47.9725 11.8643ZM47.9725 29.7468C44.5952 29.7468 41.6784 26.9676 41.6784 23.0001C41.6784 18.9943 44.5952 16.2534 47.9725 16.2534C51.3497 16.2534 54.2665 18.9943 54.2665 23.0001C54.2665 26.9676 51.3497 29.7468 47.9725 29.7468Z" fill="#14181F"/>
<path d="M102.816 14.3559H102.643C101.549 13.0526 99.4386 11.8643 96.7713 11.8643C91.2064 11.8643 86.3516 16.7134 86.3516 23.0001C86.3516 29.2484 91.2064 34.1359 96.7713 34.1359C99.4386 34.1359 101.549 32.9476 102.643 31.6059H102.816V33.1584C102.816 37.4134 100.532 39.6943 96.8672 39.6943C93.8737 39.6943 92.0124 37.5476 91.2448 35.7268L86.9848 37.4901C88.2129 40.4418 91.4559 44.0643 96.8672 44.0643C102.605 44.0643 107.46 40.6909 107.46 32.4684V12.4393H102.816V14.3559ZM97.1935 29.7468C93.8162 29.7468 91.2448 26.8718 91.2448 23.0001C91.2448 19.0709 93.8162 16.2534 97.1935 16.2534C100.532 16.2534 103.142 19.1284 103.142 23.0384C103.161 26.9293 100.532 29.7468 97.1935 29.7468Z" fill="#14181F"/>
<path d="M72.9217 11.8643C66.7619 11.8643 61.7344 16.5409 61.7344 23.0001C61.7344 29.4018 66.7619 34.1359 72.9217 34.1359C79.0814 34.1359 84.109 29.4209 84.109 23.0001C84.109 16.5409 79.0814 11.8643 72.9217 11.8643ZM72.9217 29.7468C69.5444 29.7468 66.6276 26.9676 66.6276 23.0001C66.6276 18.9943 69.5444 16.2534 72.9217 16.2534C76.299 16.2534 79.2157 18.9943 79.2157 23.0001C79.2157 26.9676 76.299 29.7468 72.9217 29.7468Z" fill="#14181F"/>
<path d="M111.297 0.459961H116.113V34.1358H111.297V0.459961Z" fill="#14181F"/>
<path d="M130.983 29.7468C128.488 29.7468 126.723 28.6159 125.571 26.3734L140.481 20.2209L139.982 18.9559C139.061 16.4643 136.221 11.8643 130.445 11.8643C124.708 11.8643 119.93 16.3684 119.93 23.0001C119.93 29.2484 124.65 34.1359 130.983 34.1359C136.087 34.1359 139.042 31.0118 140.27 29.2101L136.471 26.6801C135.204 28.5201 133.477 29.7468 130.983 29.7468V29.7468ZM130.637 16.0426C132.614 16.0426 134.302 17.0584 134.859 18.4959L124.785 22.6551C124.785 17.9784 128.104 16.0426 130.637 16.0426V16.0426Z" fill="#14181F"/>
</svg>
