<svg width="24" height="24" viewBox="0 0 24 24" fill="none" xmlns="http://www.w3.org/2000/svg">
<g clip-path="url(#clip0_2118_16101)">
<path d="M5.26623 9.765C5.73412 8.34945 6.6371 7.11781 7.84635 6.2458C9.05561 5.37378 10.5094 4.90594 12.0002 4.909C13.6902 4.909 15.2182 5.509 16.4182 6.491L19.9102 3C17.7822 1.145 15.0552 0 12.0002 0C7.27024 0 3.19823 2.698 1.24023 6.65L5.26623 9.765Z" fill="#EA4335"/>
<path d="M16.0393 18.0129C14.9493 18.7159 13.5653 19.0909 11.9993 19.0909C10.5144 19.094 9.06613 18.6299 7.85956 17.7643C6.653 16.8987 5.74927 15.6755 5.27633 14.2679L1.23633 17.3349C2.22757 19.3412 3.7616 21.0293 5.66415 22.2075C7.56671 23.3857 9.76153 24.0066 11.9993 23.9999C14.9323 23.9999 17.7343 22.9569 19.8333 20.9999L16.0403 18.0129H16.0393Z" fill="#34A853"/>
<path d="M19.834 21C22.029 18.952 23.454 15.904 23.454 12C23.454 11.29 23.345 10.527 23.182 9.81799H12V14.455H18.436C18.119 16.014 17.266 17.221 16.041 18.013L19.834 21Z" fill="#4A90E2"/>
<path d="M5.27712 14.268C5.03247 13.5369 4.90819 12.771 4.90912 12C4.90912 11.218 5.03412 10.467 5.26612 9.76502L1.24012 6.65002C0.416494 8.31271 -0.00807995 10.1445 0.000116455 12C0.000116455 13.92 0.445117 15.73 1.23712 17.335L5.27712 14.268Z" fill="#FBBC05"/>
</g>
<defs>
<clipPath id="clip0_2118_16101">
<rect width="24" height="24" fill="white"/>
</clipPath>
</defs>
</svg>
