<svg width="24" height="24" viewBox="0 0 24 24" fill="none" xmlns="http://www.w3.org/2000/svg">
<path d="M5.75961 21.5996C2.71961 20.3196 1.59961 17.5996 1.59961 11.9996C1.59961 3.51961 4.47961 1.59961 11.9996 1.59961C19.5196 1.59961 22.3996 3.51961 22.3996 11.9996C22.3996 20.1596 19.5196 22.3996 11.9996 22.3996C9.27961 22.3996 7.19961 22.2396 5.75961 21.5996Z" stroke="#14181F" stroke-width="2" stroke-miterlimit="10" stroke-linecap="round" stroke-linejoin="round"/>
<path d="M8.63943 9.75959C8.31943 6.71959 11.5194 5.91959 13.9194 6.87959C15.5194 7.51959 15.9994 10.0796 14.5594 11.0396C13.9194 11.5196 12.6394 11.6796 12.6394 12.6396V14.0796" stroke="#14181F" stroke-width="2" stroke-miterlimit="10" stroke-linecap="round" stroke-linejoin="round"/>
<path d="M11.36 19.0393C10.88 18.7193 10.88 16.9593 11.36 16.6393C11.84 16.1593 13.28 16.1593 13.76 16.6393C14.24 16.9593 14.24 18.7193 13.76 19.0393C13.28 19.5193 11.68 19.5193 11.36 19.0393Z" fill="#14181F"/>
</svg>
