<svg width="142" height="48" viewBox="0 0 142 48" fill="none" xmlns="http://www.w3.org/2000/svg">
<g clip-path="url(#clip0_80_5179)">
<path d="M43.2886 0H4.31447C1.93165 0 0 1.94776 0 4.35044V43.6496C0 46.0522 1.93165 48 4.31447 48H43.2886C45.6714 48 47.6031 46.0522 47.6031 43.6496V4.35044C47.6031 1.94776 45.6714 0 43.2886 0Z" fill="#14181F"/>
<path d="M66.8452 37.2673H71.4009V17.2176H66.8452V37.2673ZM83.4884 25.4203C81.1542 24.6592 79.0066 24.0512 79.0066 22.6076V22.533C79.0066 21.3562 80.022 20.5206 81.7922 20.5206C82.7588 20.546 83.7146 20.7329 84.6205 21.0737V21.0737H84.6477L84.9084 21.1718C85.6281 21.3993 87.5733 21.7092 89.2112 19.1437C87.038 17.7043 84.5047 16.9154 81.905 16.8684C77.9523 16.8684 74.8283 19.1829 74.8283 22.9802V23.0587C74.8283 26.8913 78.1041 28.1074 81.053 28.943C83.3872 29.6648 85.4959 30.1944 85.4959 31.7517V31.8263C85.4959 33.1561 84.3676 33.9917 82.4069 33.9917C80.9672 33.9609 79.5517 33.6128 78.2597 32.9717C77.8706 32.7952 75.7231 32.0616 73.9063 34.6703C76.3016 36.5588 79.2422 37.6082 82.2824 37.6596C86.4257 37.6596 89.6742 35.5726 89.6742 31.3555V31.2653C89.6625 27.6602 86.3868 26.3304 83.4884 25.4203ZM54.4193 31.9479L49.0738 17.2176H44.1797L52.3496 37.4163H56.4539L64.581 17.2176H59.7958L54.4193 31.9479ZM110.83 16.8018C104.73 16.8018 100.213 21.5445 100.213 27.3189C100.213 33.0934 104.695 37.7184 110.756 37.7184C116.895 37.7184 121.412 32.9757 121.412 27.2405C121.412 21.5053 116.923 16.8018 110.822 16.8018H110.83ZM110.83 33.7328C107.29 33.7328 104.769 30.8103 104.769 27.2405C104.769 23.6707 107.103 20.8227 110.756 20.8227C114.332 20.8227 116.856 23.7491 116.856 27.3189C116.856 30.8887 114.514 33.7367 110.822 33.7367L110.83 33.7328ZM134.92 16.8018C131.835 16.8018 129.99 18.4337 128.695 20.3323V17.2176H124.151V37.2673H128.707V25.9498C128.707 22.8351 130.555 20.9757 133.188 20.9757C135.912 20.9757 137.445 22.7606 137.445 25.8753V37.2673H142V24.5062C142 19.838 139.401 16.8018 134.92 16.8018ZM92.6737 37.2673H97.2332V17.2176H92.6737V37.2673Z" fill="#14181F"/>
<path d="M15.9061 15.1028C16.4715 15.0951 17.022 14.919 17.4883 14.5966C17.9547 14.2743 18.3162 13.8201 18.5272 13.2912C18.7383 12.7622 18.7895 12.1822 18.6745 11.624C18.5596 11.0658 18.2835 10.5543 17.881 10.1539C17.4785 9.75345 16.9676 9.48197 16.4124 9.37355C15.8573 9.26514 15.2828 9.32464 14.7612 9.54457C14.2395 9.7645 13.794 10.135 13.4806 10.6096C13.1673 11.0842 13.0001 11.6415 13 12.2117C13.001 12.5944 13.0771 12.9731 13.224 13.326C13.3709 13.6788 13.5856 13.9989 13.8558 14.2677C14.126 14.5364 14.4463 14.7486 14.7982 14.892C15.1501 15.0353 15.5266 15.107 15.9061 15.1028V15.1028Z" fill="white"/>
<path d="M9.88184 30.5748C9.71706 31.2874 9.63094 32.0163 9.62507 32.748C9.62507 35.2901 10.9906 36.9808 13.9045 36.9808C16.3166 36.9808 18.2696 35.5372 19.6779 33.2031L18.8181 36.6827H23.6033L26.3266 25.6124C27.0269 22.8115 28.3535 21.3561 30.3454 21.3561C31.9288 21.3561 32.9131 22.3486 32.9131 23.9844C32.9221 24.5154 32.8499 25.0447 32.6991 25.5535L31.2869 30.6532C31.0855 31.3544 30.9846 32.0809 30.9873 32.8108C30.9873 35.2273 32.3995 36.9926 35.3485 36.9926C37.8733 36.9926 39.8847 35.3528 40.9935 31.43L39.1144 30.6964C38.1729 33.3286 37.3598 33.8033 36.7179 33.8033C36.076 33.8033 35.7336 33.3718 35.7336 32.5088C35.7519 32.0559 35.8237 31.6068 35.9476 31.1711L37.3481 26.1851C37.6563 25.1678 37.8149 24.1105 37.8189 23.0468C37.8189 19.3358 35.5936 17.4019 32.9014 17.4019C30.3765 17.4019 27.8127 19.6967 26.5289 22.1093L27.4704 17.7941H20.1409L19.1138 21.5758H22.5373L20.4287 30.0962C18.7753 33.8072 15.7369 33.8661 15.3712 33.7798C14.7449 33.6385 14.3441 33.3875 14.3441 32.5754C14.3643 31.9118 14.4649 31.2531 14.6437 30.614L17.8494 17.7863H9.72622L8.68359 21.5758H12.0605L9.88184 30.5748Z" fill="white"/>
</g>
<defs>
<clipPath id="clip0_80_5179">
<rect width="142" height="48" fill="white"/>
</clipPath>
</defs>
</svg>
