<svg width="48" height="48" viewBox="0 0 48 48" fill="none" xmlns="http://www.w3.org/2000/svg">
<rect x="0.5" y="0.5" width="47" height="47" rx="23.5" stroke="#CCD1D6"/>
<path d="M19.3863 32.3332V21.1848H15.9264V32.3332H19.3863ZM17.6377 19.6933C18.7538 19.6933 19.6467 18.7612 19.6467 17.6426C19.6467 16.5614 18.7538 15.6665 17.6377 15.6665C16.5589 15.6665 15.666 16.5614 15.666 17.6426C15.666 18.7612 16.5589 19.6933 17.6377 19.6933ZM32.2955 32.3332H32.3327V26.2183C32.3327 23.2355 31.663 20.9238 28.166 20.9238C26.4919 20.9238 25.3758 21.8559 24.8922 22.7135H24.855V21.1848H21.544V32.3332H25.0038V26.8149C25.0038 25.3608 25.2642 23.9812 27.0499 23.9812C28.8357 23.9812 28.8729 25.6218 28.8729 26.9268V32.3332H32.2955Z" fill="#14181F"/>
</svg>
