<svg width="16" height="16" viewBox="0 0 16 16" fill="none" xmlns="http://www.w3.org/2000/svg">
<path d="M7.16831 14.8053C7.07681 14.2366 7.01627 13.6633 6.98698 13.088C6.98698 12.512 6.98698 11.936 6.92298 11.3706C6.85898 10.8053 6.92298 10.2186 6.92298 9.65331C6.95532 9.07777 7.01941 8.50445 7.11498 7.93598C7.15254 7.7472 7.2544 7.57729 7.40319 7.45519C7.55198 7.33309 7.7385 7.26636 7.93098 7.26636C8.12345 7.26636 8.30997 7.33309 8.45877 7.45519C8.60756 7.57729 8.70941 7.7472 8.74698 7.93598C8.8513 8.50348 8.91899 9.07711 8.94964 9.65331C8.94964 10.2186 8.94964 10.7946 8.94964 11.3706C8.94964 11.9466 8.94964 12.512 8.89631 13.088C8.84298 13.664 8.80031 14.2293 8.70431 14.8053C8.68624 14.9118 8.64732 15.0137 8.5898 15.1052C8.53228 15.1967 8.45727 15.2759 8.36908 15.3383C8.2809 15.4007 8.18126 15.4451 8.07588 15.469C7.9705 15.4928 7.86145 15.4957 7.75498 15.4773C7.6041 15.4314 7.46914 15.3441 7.36543 15.2253C7.26172 15.1065 7.19342 14.961 7.16831 14.8053Z" fill="#14181F"/>
<path d="M7.93591 7.168C8.50457 7.07595 9.07789 7.01542 9.65324 6.98667C10.2186 6.98667 10.7946 6.98667 11.3706 6.92267C11.9466 6.85867 12.5119 6.92267 13.0879 6.92267C13.6634 6.95569 14.2367 7.01978 14.8052 7.11467C14.994 7.15224 15.1639 7.25409 15.286 7.40288C15.4081 7.55167 15.4749 7.7382 15.4749 7.93067C15.4749 8.12315 15.4081 8.30967 15.286 8.45846C15.1639 8.60725 14.994 8.70911 14.8052 8.74667C14.2376 8.85036 13.6641 8.91805 13.0879 8.94934C12.5119 8.94934 11.9359 8.94934 11.3706 8.94934C10.8052 8.94934 10.2186 8.94934 9.65324 8.896C9.08791 8.84267 8.53324 8.896 7.93591 8.8C7.72012 8.76337 7.52747 8.64318 7.39968 8.46548C7.2719 8.28779 7.21929 8.06689 7.25324 7.85067C7.28338 7.68065 7.36502 7.52398 7.48712 7.40188C7.60922 7.27978 7.76588 7.19814 7.93591 7.168Z" fill="#14181F"/>
<path d="M8.83174 1.19469C8.92324 1.76343 8.98377 2.33672 9.01307 2.91203C9.0664 3.48803 9.01307 4.06403 9.07707 4.62936C9.14107 5.19469 9.07707 5.78136 9.07707 6.34669C9.04473 6.92223 8.98063 7.49555 8.88507 8.06402C8.8475 8.2528 8.74565 8.42271 8.59686 8.54481C8.44807 8.66691 8.26155 8.73364 8.06907 8.73364C7.87659 8.73364 7.69007 8.66691 7.54128 8.54481C7.39249 8.42271 7.29064 8.2528 7.25307 8.06402C7.13307 7.51525 7.04757 6.95949 6.99707 6.40002C6.99707 5.83469 6.99707 5.25869 6.99707 4.68269C6.99707 4.10669 6.99707 3.54136 7.0504 2.96536C7.10374 2.38936 7.1464 1.82403 7.2424 1.24803C7.26653 1.03164 7.37558 0.833693 7.5456 0.697683C7.71561 0.561672 7.93267 0.498731 8.14907 0.522692C8.31763 0.552144 8.47323 0.632215 8.59518 0.752255C8.71712 0.872295 8.79963 1.02662 8.83174 1.19469Z" fill="#14181F"/>
<path d="M8.06416 8.83198C7.51313 8.92211 6.95767 8.98264 6.40016 9.01331C5.83483 9.06665 5.25883 9.01331 4.68283 9.07731C4.10683 9.14131 3.54149 9.07731 2.96549 9.07731C2.39001 9.0443 1.81673 8.9802 1.24816 8.88531C1.13078 8.87202 1.01757 8.83389 0.91607 8.77345C0.814571 8.713 0.727107 8.63164 0.659498 8.53476C0.591888 8.43789 0.545683 8.32773 0.523957 8.21161C0.502231 8.09549 0.505482 7.97608 0.533494 7.86131C0.566089 7.69809 0.646293 7.54817 0.763989 7.43048C0.881686 7.31278 1.0316 7.23258 1.19483 7.19998C1.76243 7.09629 2.33602 7.0286 2.91216 6.99731C3.48816 6.99731 4.06416 6.99731 4.62949 6.99731C5.19483 6.99731 5.78149 6.99731 6.34683 7.05065C6.91216 7.10398 7.48816 7.14665 8.06416 7.24265C8.27994 7.27928 8.4726 7.39947 8.60038 7.57717C8.72817 7.75487 8.78078 7.97576 8.74683 8.19198C8.70902 8.35418 8.624 8.50154 8.50249 8.61545C8.38099 8.72936 8.22846 8.80471 8.06416 8.83198Z" fill="#14181F"/>
</svg>
