<svg width="28" height="24" viewBox="0 0 28 24" fill="none" xmlns="http://www.w3.org/2000/svg">
<path d="M12.78 19.2873C12.6693 18.6784 12.5961 18.0646 12.5606 17.4487C12.5606 16.832 12.5606 16.2153 12.4832 15.61C12.4057 15.0048 12.4832 14.3767 12.4832 13.7714C12.5223 13.1552 12.5999 12.5414 12.7155 11.9327C12.7609 11.7306 12.8842 11.5487 13.0643 11.418C13.2443 11.2873 13.47 11.2158 13.7029 11.2158C13.9358 11.2158 14.1615 11.2873 14.3416 11.418C14.5217 11.5487 14.6449 11.7306 14.6904 11.9327C14.8166 12.5403 14.8985 13.1545 14.9356 13.7714C14.9356 14.3767 14.9356 14.9933 14.9356 15.61C14.9356 16.2267 14.9356 16.832 14.8711 17.4487C14.8065 18.0654 14.7549 18.6706 14.6387 19.2873C14.6169 19.4014 14.5698 19.5105 14.5002 19.6084C14.4306 19.7063 14.3398 19.7911 14.2331 19.858C14.1264 19.9248 14.0058 19.9724 13.8783 19.9979C13.7508 20.0234 13.6188 20.0265 13.4899 20.0068C13.3074 19.9577 13.1441 19.8642 13.0186 19.737C12.8931 19.6098 12.8104 19.454 12.78 19.2873Z" fill="white"/>
<path d="M13.7093 11.1105C14.3974 11.0119 15.0912 10.9471 15.7874 10.9164C16.4715 10.9164 17.1685 10.9164 17.8655 10.8478C18.5625 10.7793 19.2466 10.8478 19.9437 10.8478C20.64 10.8832 21.3338 10.9518 22.0218 11.0534C22.2502 11.0936 22.4558 11.2027 22.6036 11.362C22.7513 11.5213 22.8321 11.721 22.8321 11.927C22.8321 12.1331 22.7513 12.3328 22.6036 12.4921C22.4558 12.6514 22.2502 12.7605 22.0218 12.8007C21.3349 12.9117 20.6408 12.9842 19.9437 13.0177C19.2466 13.0177 18.5496 13.0177 17.8655 13.0177C17.1814 13.0177 16.4715 13.0177 15.7874 12.9606C15.1033 12.9035 14.4321 12.9606 13.7093 12.8578C13.4481 12.8186 13.215 12.6899 13.0604 12.4996C12.9057 12.3094 12.8421 12.0729 12.8832 11.8414C12.9196 11.6594 13.0184 11.4916 13.1662 11.3609C13.3139 11.2302 13.5035 11.1428 13.7093 11.1105Z" fill="white"/>
<path d="M14.793 4.71505C14.9037 5.32396 14.977 5.93775 15.0124 6.5537C15.077 7.17038 15.0124 7.78707 15.0899 8.39234C15.1673 8.99761 15.0899 9.62572 15.0899 10.231C15.0507 10.8472 14.9732 11.461 14.8575 12.0696C14.8121 12.2717 14.6888 12.4537 14.5088 12.5844C14.3287 12.7151 14.103 12.7866 13.8701 12.7866C13.6372 12.7866 13.4115 12.7151 13.2314 12.5844C13.0514 12.4537 12.9281 12.2717 12.8827 12.0696C12.7375 11.4821 12.634 10.8871 12.5729 10.2881C12.5729 9.68282 12.5729 9.06613 12.5729 8.44944C12.5729 7.83275 12.5729 7.22749 12.6374 6.6108C12.702 5.99411 12.7536 5.38884 12.8698 4.77215C12.8989 4.54048 13.0309 4.32855 13.2366 4.18293C13.4424 4.03731 13.705 3.96992 13.9669 3.99558C14.1709 4.02711 14.3592 4.11284 14.5067 4.24136C14.6543 4.36988 14.7541 4.5351 14.793 4.71505Z" fill="white"/>
<path d="M13.8639 12.892C13.1971 12.9885 12.525 13.0533 11.8503 13.0861C11.1662 13.1432 10.4692 13.0861 9.77221 13.1547C9.07519 13.2232 8.39109 13.1547 7.69407 13.1547C6.99768 13.1193 6.30396 13.0507 5.61594 12.9491C5.47389 12.9349 5.3369 12.894 5.21408 12.8293C5.09126 12.7646 4.98542 12.6775 4.9036 12.5738C4.82179 12.4701 4.76588 12.3521 4.73959 12.2278C4.71329 12.1035 4.71723 11.9756 4.75113 11.8528C4.79057 11.678 4.88762 11.5175 5.03005 11.3915C5.17247 11.2655 5.35388 11.1796 5.5514 11.1447C6.23825 11.0337 6.93235 10.9612 7.62953 10.9277C8.32655 10.9277 9.02356 10.9277 9.70767 10.9277C10.3918 10.9277 11.1017 10.9277 11.7858 10.9848C12.4699 11.0419 13.1669 11.0876 13.8639 11.1904C14.1251 11.2296 14.3582 11.3583 14.5128 11.5485C14.6674 11.7388 14.7311 11.9753 14.69 12.2068C14.6443 12.3804 14.5414 12.5382 14.3944 12.6602C14.2473 12.7821 14.0628 12.8628 13.8639 12.892Z" fill="white"/>
</svg>
