<svg width="48" height="48" viewBox="0 0 48 48" fill="none" xmlns="http://www.w3.org/2000/svg">
<circle cx="24" cy="24" r="23.5" fill="white" stroke="#CCD1D6"/>
<path d="M31.07 16.93L16.93 31.07C15.12 29.26 14 26.76 14 24C14 18.48 18.48 14 24 14C26.76 14 29.26 15.12 31.07 16.93Z" stroke="#14181F" stroke-width="1.5" stroke-linecap="round" stroke-linejoin="round"/>
<path d="M33.9997 24.0001C33.9997 29.5201 29.5197 34.0001 23.9997 34.0001C21.2397 34.0001 18.7397 32.8801 16.9297 31.0701L31.0697 16.9301C32.8797 18.7401 33.9997 21.2401 33.9997 24.0001Z" stroke="#14181F" stroke-width="1.5" stroke-linecap="round" stroke-linejoin="round"/>
<path d="M19.7598 28.24L25.4097 33.9" stroke="#14181F" stroke-width="1.5" stroke-linecap="round" stroke-linejoin="round"/>
<path d="M23.2891 24.71L29.8691 31.28" stroke="#14181F" stroke-width="1.5" stroke-linecap="round" stroke-linejoin="round"/>
<path d="M26.8301 21.17L33.1201 27.47" stroke="#14181F" stroke-width="1.5" stroke-linecap="round" stroke-linejoin="round"/>
<rect width="33" height="12" transform="translate(7 26)" fill="white"/>
<path d="M12.2862 28.42H15.6942C16.5342 28.42 17.2062 28.624 17.7102 29.032C18.2222 29.432 18.4782 30.06 18.4782 30.916C18.4782 31.772 18.2222 32.404 17.7102 32.812C17.2062 33.212 16.5342 33.412 15.6942 33.412H13.3662V37H12.2862V28.42ZM13.3662 32.452H15.8142C16.3502 32.452 16.7462 32.328 17.0022 32.08C17.2662 31.824 17.3982 31.436 17.3982 30.916C17.3982 30.396 17.2662 30.012 17.0022 29.764C16.7462 29.508 16.3502 29.38 15.8142 29.38H13.3662V32.452ZM19.2767 28.42H20.5967L24.8807 35.488H24.9047V28.42H25.9847V37H24.6647L20.3807 29.956H20.3567V37H19.2767V28.42ZM33.6076 31.012C33.4876 30.42 33.2036 29.972 32.7556 29.668C32.3076 29.364 31.7476 29.212 31.0756 29.212C30.4356 29.212 29.8956 29.384 29.4556 29.728C29.0236 30.072 28.6996 30.512 28.4836 31.048C28.2756 31.576 28.1716 32.128 28.1716 32.704C28.1716 33.664 28.3876 34.488 28.8196 35.176C29.2596 35.864 29.9716 36.208 30.9556 36.208C31.4676 36.208 31.9356 36.096 32.3596 35.872C32.7836 35.64 33.1196 35.316 33.3676 34.9C33.6236 34.484 33.7516 34.016 33.7516 33.496H30.9556V32.536H34.8316V37H34.1116L33.7516 35.788H33.7276C33.3916 36.252 33.0036 36.6 32.5636 36.832C32.1316 37.056 31.5956 37.168 30.9556 37.168C30.1396 37.168 29.4396 36.98 28.8556 36.604C28.2796 36.22 27.8396 35.692 27.5356 35.02C27.2396 34.348 27.0916 33.576 27.0916 32.704C27.0916 31.848 27.2596 31.084 27.5956 30.412C27.9316 29.732 28.3996 29.204 28.9996 28.828C29.6076 28.444 30.2996 28.252 31.0756 28.252C32.1236 28.252 32.9476 28.5 33.5476 28.996C34.1476 29.484 34.5276 30.156 34.6876 31.012H33.6076Z" fill="#14181F"/>
</svg>
