<svg width="24" height="24" viewBox="0 0 24 24" fill="none" xmlns="http://www.w3.org/2000/svg">
<path d="M4.04404 15.3242L3.19204 14.5082C2.57869 13.9222 2.08684 13.221 1.74461 12.4448C1.40238 11.6686 1.21648 10.8326 1.19753 9.98447C1.17859 9.13637 1.32697 8.29286 1.63419 7.50214C1.94142 6.71143 2.40147 5.98901 2.98804 5.37619L3.80404 4.53619C4.38715 3.92216 5.08597 3.42956 5.86026 3.08675C6.63455 2.74393 7.46901 2.55768 8.31558 2.53872C9.16216 2.51976 10.0041 2.66846 10.793 2.97626C11.5818 3.28407 12.302 3.74489 12.912 4.33219L13.764 5.13619C14.9999 6.32134 15.7153 7.94818 15.7536 9.66002C15.7918 11.3719 15.1497 13.029 13.968 14.2682L13.2 15.1202C12.6153 15.74 11.9133 16.2374 11.1347 16.5836C10.3562 16.9298 9.51656 17.1179 8.6647 17.1368C7.81284 17.1558 6.9657 17.0054 6.17248 16.6942C5.37926 16.383 4.65577 15.9173 4.04404 15.3242V15.3242Z" stroke="#14181F" stroke-width="2" stroke-linecap="round" stroke-linejoin="round"/>
<path d="M13.968 14.2681L21.144 19.6801" stroke="#14181F" stroke-width="2" stroke-linecap="round" stroke-linejoin="round"/>
<path d="M18.36 14.9522C17.316 14.8682 16.116 16.1522 15.96 17.3522C15.9137 17.6823 15.9485 18.0187 16.0614 18.3323C16.1743 18.6459 16.3619 18.9273 16.608 19.1522C17.124 19.7522 20.724 23.9522 22.896 20.8322C23.1263 20.5033 23.2894 20.1322 23.376 19.7402C23.4603 19.258 23.3619 18.7617 23.1 18.3482C22.5904 17.4828 21.9054 16.7337 21.0891 16.1488C20.2728 15.564 19.3432 15.1564 18.36 14.9522Z" fill="#14181F"/>
</svg>
