<svg width="48" height="48" viewBox="0 0 48 48" fill="none" xmlns="http://www.w3.org/2000/svg">
<circle cx="24" cy="24" r="23.5" fill="white" stroke="#CCD1D6"/>
<path d="M15 21C16.1046 21 17 20.1046 17 19C17 17.8954 16.1046 17 15 17C13.8954 17 13 17.8954 13 19C13 20.1046 13.8954 21 15 21Z" stroke="#14181F" stroke-width="1.5" stroke-miterlimit="10" stroke-linecap="round" stroke-linejoin="round"/>
<path d="M33 21C34.1046 21 35 20.1046 35 19C35 17.8954 34.1046 17 33 17C31.8954 17 31 17.8954 31 19C31 20.1046 31.8954 21 33 21Z" stroke="#14181F" stroke-width="1.5" stroke-miterlimit="10" stroke-linecap="round" stroke-linejoin="round"/>
<path d="M31 19H27" stroke="#14181F" stroke-width="1.5" stroke-miterlimit="10" stroke-linecap="round" stroke-linejoin="round"/>
<path d="M21 19H17" stroke="#14181F" stroke-width="1.5" stroke-miterlimit="10" stroke-linecap="round" stroke-linejoin="round"/>
<path d="M19.5 28.5V30.5C19.5 31.11 19.13 31.64 18.61 31.86C18.42 31.95 18.22 32 18 32H16C15.17 32 14.5 31.33 14.5 30.5V28.5C14.5 27.67 15.17 27 16 27H18C18.83 27 19.5 27.67 19.5 28.5Z" stroke="#14181F" stroke-width="1.5" stroke-miterlimit="10" stroke-linecap="round" stroke-linejoin="round"/>
<path d="M33.5 28.5V30.5C33.5 31.33 32.83 32 32 32H30C29.78 32 29.58 31.95 29.39 31.86C28.87 31.64 28.5 31.11 28.5 30.5V28.5C28.5 27.67 29.17 27 30 27H32C32.83 27 33.5 27.67 33.5 28.5Z" stroke="#14181F" stroke-width="1.5" stroke-miterlimit="10" stroke-linecap="round" stroke-linejoin="round"/>
<path d="M27 17.5V20.5C27 21.32 26.32 22 25.5 22H22.5C21.68 22 21 21.32 21 20.5V17.5C21 16.68 21.68 16 22.5 16H25.5C26.32 16 27 16.68 27 17.5Z" stroke="#14181F" stroke-width="1.5" stroke-miterlimit="10" stroke-linecap="round" stroke-linejoin="round"/>
<path d="M27 19.73C29.37 20.93 31 23.51 31 26.5C31 26.67 30.99 26.83 30.97 27" stroke="#14181F" stroke-width="1.5" stroke-miterlimit="10" stroke-linecap="round" stroke-linejoin="round"/>
<path d="M17.03 27C17.01 26.83 17 26.67 17 26.5C17 23.51 18.63 20.93 21 19.73" stroke="#14181F" stroke-width="1.5" stroke-miterlimit="10" stroke-linecap="round" stroke-linejoin="round"/>
<rect width="31" height="12" transform="translate(9 26)" fill="white"/>
<path d="M17.0323 31.996C17.8323 32.196 18.4403 32.38 18.8563 32.548C19.2723 32.716 19.6043 32.972 19.8523 33.316C20.1003 33.66 20.2243 34.14 20.2243 34.756C20.2243 35.188 20.1123 35.588 19.8883 35.956C19.6723 36.324 19.3323 36.62 18.8683 36.844C18.4043 37.06 17.8243 37.168 17.1283 37.168C16.4483 37.168 15.8323 37.052 15.2803 36.82C14.7363 36.58 14.2963 36.232 13.9603 35.776C13.6323 35.312 13.4483 34.76 13.4083 34.12H14.4883C14.5523 34.76 14.7963 35.268 15.2203 35.644C15.6443 36.02 16.2803 36.208 17.1283 36.208C17.8243 36.208 18.3323 36.072 18.6523 35.8C18.9803 35.528 19.1443 35.18 19.1443 34.756C19.1443 34.364 19.0643 34.064 18.9043 33.856C18.7523 33.648 18.5083 33.484 18.1723 33.364C17.8363 33.236 17.3083 33.088 16.5883 32.92C16.0363 32.792 15.5643 32.648 15.1723 32.488C14.7803 32.328 14.4483 32.088 14.1763 31.768C13.9043 31.448 13.7683 31.028 13.7683 30.508C13.7683 29.82 14.0243 29.272 14.5363 28.864C15.0483 28.456 15.7723 28.252 16.7083 28.252C17.6363 28.252 18.3883 28.488 18.9643 28.96C19.5483 29.424 19.8763 30.092 19.9483 30.964H18.8683C18.7883 30.38 18.5723 29.944 18.2203 29.656C17.8763 29.36 17.3723 29.212 16.7083 29.212C16.1163 29.212 15.6563 29.32 15.3283 29.536C15.0083 29.744 14.8483 30.028 14.8483 30.388C14.8483 30.748 14.9363 31.028 15.1123 31.228C15.2883 31.42 15.5043 31.56 15.7603 31.648C16.0163 31.736 16.4403 31.852 17.0323 31.996ZM21.4416 28.42L23.8896 35.92H23.9016L26.3496 28.42H27.4896L24.4896 37H23.3016L20.3016 28.42H21.4416ZM33.9455 31.012C33.8255 30.42 33.5415 29.972 33.0935 29.668C32.6455 29.364 32.0855 29.212 31.4135 29.212C30.7735 29.212 30.2335 29.384 29.7935 29.728C29.3615 30.072 29.0375 30.512 28.8215 31.048C28.6135 31.576 28.5095 32.128 28.5095 32.704C28.5095 33.664 28.7255 34.488 29.1575 35.176C29.5975 35.864 30.3095 36.208 31.2935 36.208C31.8055 36.208 32.2735 36.096 32.6975 35.872C33.1215 35.64 33.4575 35.316 33.7055 34.9C33.9615 34.484 34.0895 34.016 34.0895 33.496H31.2935V32.536H35.1695V37H34.4495L34.0895 35.788H34.0655C33.7295 36.252 33.3415 36.6 32.9015 36.832C32.4695 37.056 31.9335 37.168 31.2935 37.168C30.4775 37.168 29.7775 36.98 29.1935 36.604C28.6175 36.22 28.1775 35.692 27.8735 35.02C27.5775 34.348 27.4295 33.576 27.4295 32.704C27.4295 31.848 27.5975 31.084 27.9335 30.412C28.2695 29.732 28.7375 29.204 29.3375 28.828C29.9455 28.444 30.6375 28.252 31.4135 28.252C32.4615 28.252 33.2855 28.5 33.8855 28.996C34.4855 29.484 34.8655 30.156 35.0255 31.012H33.9455Z" fill="#14181F"/>
</svg>
