<svg width="20" height="20" viewBox="0 0 20 20" fill="none" xmlns="http://www.w3.org/2000/svg">
<mask id="path-1-outside-1_3105_27093" maskUnits="userSpaceOnUse" x="5.75" y="1.71094" width="13" height="13" fill="black">
<rect fill="white" x="5.75" y="1.71094" width="13" height="13"/>
<path d="M17.5177 4.08329C16.7904 4.99995 16.0631 5.83329 15.3359 6.66662C14.6086 7.49995 13.8005 8.33329 13.0732 9.16662C12.2652 9.99995 11.5379 10.75 10.7298 11.5833C9.92172 12.3333 9.11364 13.0833 8.22475 13.8333C7.82071 14.1666 7.25505 14.0833 6.93182 13.6666C6.68939 13.3333 6.68939 12.8333 6.93182 12.5C7.65909 11.5833 8.38636 10.75 9.11363 9.91662C9.84091 9.08329 10.649 8.24995 11.4571 7.49995C12.2652 6.74995 12.9924 5.91662 13.8813 5.16662C14.6894 4.41662 15.4975 3.66662 16.3864 2.91662C16.7904 2.58329 17.3561 2.66662 17.6793 3.08328C17.7601 3.24995 17.7601 3.74995 17.5177 4.08329Z"/>
</mask>
<path d="M17.5177 4.08329C16.7904 4.99995 16.0631 5.83329 15.3359 6.66662C14.6086 7.49995 13.8005 8.33329 13.0732 9.16662C12.2652 9.99995 11.5379 10.75 10.7298 11.5833C9.92172 12.3333 9.11364 13.0833 8.22475 13.8333C7.82071 14.1666 7.25505 14.0833 6.93182 13.6666C6.68939 13.3333 6.68939 12.8333 6.93182 12.5C7.65909 11.5833 8.38636 10.75 9.11363 9.91662C9.84091 9.08329 10.649 8.24995 11.4571 7.49995C12.2652 6.74995 12.9924 5.91662 13.8813 5.16662C14.6894 4.41662 15.4975 3.66662 16.3864 2.91662C16.7904 2.58329 17.3561 2.66662 17.6793 3.08328C17.7601 3.24995 17.7601 3.74995 17.5177 4.08329Z" fill="#14181F"/>
<path d="M17.5177 4.08329L17.6745 4.2077L17.6794 4.20092L17.5177 4.08329ZM13.0732 9.16662L13.217 9.30604L13.2239 9.29813L13.0732 9.16662ZM10.7298 11.5833L10.866 11.7301L10.8734 11.7225L10.7298 11.5833ZM8.22475 13.8333L8.35204 13.9876L8.35373 13.9861L8.22475 13.8333ZM6.93182 13.6666L6.76999 13.7843L6.77379 13.7892L6.93182 13.6666ZM6.93182 12.5L6.775 12.3755L6.77007 12.3823L6.93182 12.5ZM13.8813 5.16662L14.0104 5.31965L14.0174 5.31321L13.8813 5.16662ZM16.3864 2.91662L16.2591 2.76234L16.2574 2.76376L16.3864 2.91662ZM17.6793 3.08328L17.8593 2.99603L17.8501 2.97722L17.8373 2.9607L17.6793 3.08328ZM17.361 3.95898C16.6371 4.87142 15.9128 5.70134 15.1852 6.53511L15.4866 6.79813C16.2134 5.96523 16.9437 5.12849 17.6744 4.20759L17.361 3.95898ZM15.1852 6.53511C14.8236 6.94941 14.4416 7.36408 14.0575 7.78111C13.674 8.19741 13.2883 8.61607 12.9226 9.03511L13.2239 9.29813C13.5855 8.88383 13.9675 8.46916 14.3516 8.05213C14.7352 7.63583 15.1208 7.21717 15.4866 6.79813L15.1852 6.53511ZM12.9297 9.02739C12.5256 9.44406 12.1418 9.83989 11.7579 10.2357C11.3741 10.6316 10.9903 11.0274 10.5862 11.4441L10.8734 11.7225C11.2774 11.3059 11.6613 10.91 12.0451 10.5142C12.4289 10.1184 12.8128 9.72252 13.2168 9.30585L12.9297 9.02739ZM10.5937 11.4367C9.78522 12.1871 8.9805 12.9339 8.09578 13.6804L8.35373 13.9861C9.24678 13.2326 10.0582 12.4795 10.8659 11.7299L10.5937 11.4367ZM8.09748 13.679C7.7872 13.935 7.34941 13.8786 7.08984 13.544L6.77379 13.7892C7.16069 14.2879 7.85423 14.3982 8.35203 13.9876L8.09748 13.679ZM7.09357 13.549C6.90214 13.2858 6.90214 12.8808 7.09357 12.6176L6.77007 12.3823C6.47664 12.7858 6.47664 13.3808 6.77007 13.7843L7.09357 13.549ZM7.0885 12.6243C7.81241 11.7118 8.53666 10.8819 9.26432 10.0481L8.96295 9.78512C8.23606 10.618 7.50577 11.4548 6.77514 12.3756L7.0885 12.6243ZM9.26432 10.0481C9.987 9.22006 10.7902 8.39176 11.5931 7.64654L11.321 7.35336C10.5078 8.10815 9.69482 8.94652 8.96295 9.78512L9.26432 10.0481ZM11.5931 7.64654C12.001 7.268 12.3892 6.86769 12.7807 6.47437C13.1738 6.07934 13.5728 5.68861 14.0103 5.31948L13.7523 5.01376C13.3009 5.39462 12.8919 5.79557 12.4971 6.1922C12.1007 6.59055 11.7212 6.98191 11.321 7.35336L11.5931 7.64654ZM14.0174 5.31321C14.8259 4.5628 15.6306 3.81596 16.5153 3.06948L16.2574 2.76376C15.3643 3.51728 14.5529 4.27043 13.7453 5.02003L14.0174 5.31321ZM16.5136 3.07089C16.8239 2.81492 17.2617 2.87127 17.5213 3.20587L17.8373 2.9607C17.4504 2.46196 16.7569 2.35166 16.2591 2.76235L16.5136 3.07089ZM17.4993 3.17054C17.5158 3.20441 17.5394 3.32678 17.5209 3.49936C17.5031 3.6638 17.4506 3.83546 17.3559 3.96565L17.6794 4.20092C17.8272 3.99778 17.8959 3.75277 17.9186 3.54221C17.9404 3.33979 17.9236 3.12882 17.8593 2.99603L17.4993 3.17054Z" fill="#14181F" mask="url(#path-1-outside-1_3105_27093)"/>
<path d="M4.11279 11.4865L4.11271 11.4866L4.11618 11.4898C4.28689 11.6499 4.45507 11.8104 4.62237 11.9701C5.32094 12.6368 6.00423 13.2889 6.79235 13.8311C6.97223 13.9693 7.19512 14.0377 7.4068 14.0377C7.6144 14.0377 7.82059 13.9716 7.96473 13.8287C8.1889 13.6853 8.33966 13.4334 8.3937 13.1659C8.44864 12.8939 8.40627 12.5925 8.22416 12.3569C7.49574 11.3554 6.76563 10.435 5.95333 9.59728C5.14339 8.76203 4.24919 7.9233 3.27154 7.25116L3.27199 7.2505L3.26071 7.24468C2.92737 7.07281 2.47685 6.96883 2.10731 7.2513C1.87988 7.39407 1.72693 7.64809 1.67242 7.91793C1.61765 8.189 1.65959 8.4894 1.84024 8.72469C2.49147 9.73129 3.30375 10.6522 4.11279 11.4865Z" fill="#14181F" stroke="#14181F" stroke-width="0.2"/>
</svg>
