<svg width="141" height="45" viewBox="0 0 141 45" fill="none" xmlns="http://www.w3.org/2000/svg">
<path d="M30.8686 18.7672L11.9815 0L8.19096 3.79244L15.2491 10.8355L0 26.0053L18.8654 44.7725L22.6776 40.98L15.6086 33.9369L30.8686 18.7672ZM8.46327 26.6879L19.813 15.3973L22.1548 17.7161L10.7942 29.0176L8.46327 26.6879Z" fill="#14181F"/>
<path d="M43.8604 5.41797V11.1716H50.1017V14.5198H43.8604V27.4575C43.8604 30.4264 44.71 32.1167 47.1281 32.1167C47.9848 32.1482 48.8412 32.0458 49.666 31.8133L49.873 35.1399C48.6172 35.543 47.3039 35.7406 45.9844 35.725C45.1115 35.766 44.2397 35.6242 43.4253 35.3087C42.611 34.9933 41.8724 34.5112 41.2572 33.8938C40.059 32.561 39.558 30.4264 39.558 27.5983V14.5198H35.8438V11.2041H39.5798V6.7399" fill="#14181F"/>
<path d="M73.7318 22.9933C73.7318 31.8676 67.5341 35.7575 61.7176 35.7575C55.2477 35.7575 50.1719 31.0007 50.1719 23.4267C50.1719 15.4409 55.4982 10.7383 62.1533 10.7383C69.0808 10.7383 73.7645 15.7443 73.7645 23.0258L73.7318 22.9933ZM54.6813 23.275C54.6813 28.5302 57.6657 32.496 61.9573 32.496C66.2488 32.496 69.2769 28.5736 69.2769 23.1775C69.2769 19.1142 67.24 14.0106 62.0553 14.0106C56.8706 14.0106 54.6813 18.7674 54.6813 23.275Z" fill="#14181F"/>
<path d="M75.907 19.027C75.907 15.9606 75.809 13.4792 75.7109 11.2038H79.5886L79.8391 15.3105H79.9371C80.8067 13.837 82.0655 12.6288 83.5767 11.817C85.088 11.0051 86.7939 10.6206 88.5093 10.7053C94.3911 10.7053 98.7698 15.6139 98.7698 22.8412C98.7698 31.5096 93.4435 35.7355 87.7578 35.7355C86.2996 35.7955 84.8506 35.48 83.551 34.8193C82.2515 34.1587 81.1455 33.1754 80.3401 31.9647H80.2421V44.9673H75.8852L75.907 19.027ZM80.2421 25.3875C80.2312 25.9893 80.2971 26.5901 80.4382 27.1754C80.8033 28.6271 81.6438 29.9167 82.8271 30.8407C84.0104 31.7647 85.4692 32.2707 86.9735 32.2789C91.6027 32.2789 94.2931 28.5081 94.2931 23.0145C94.2931 18.2577 91.7552 14.1402 87.126 14.1402C85.5836 14.175 84.0972 14.7219 82.9031 15.6937C81.7091 16.6656 80.8759 18.0067 80.5362 19.5038C80.3697 20.0681 80.2709 20.6501 80.2421 21.2375V25.3875Z" fill="#14181F"/>
<path d="M107.134 5.41797V11.1716H113.419V14.5198H107.134V27.4575C107.134 30.4264 107.983 32.1167 110.402 32.1167C111.262 32.1474 112.122 32.045 112.95 31.8133L113.146 35.1399C111.891 35.544 110.577 35.7416 109.258 35.725C108.39 35.7607 107.525 35.6164 106.717 35.3011C105.909 34.9858 105.175 34.5065 104.563 33.8938C103.365 32.561 102.864 30.4264 102.864 27.5983V14.5198H99.1172V11.2041H102.853V6.7399" fill="#14181F"/>
<path d="M133.376 29.44C133.353 31.3602 133.469 33.2794 133.724 35.1829H129.781L129.444 32.1597H129.291C128.435 33.2952 127.32 34.2118 126.038 34.8335C124.756 35.4553 123.343 35.7645 121.917 35.7355C117.037 35.7355 114.543 32.3114 114.543 28.8441C114.543 23.0471 119.728 19.8722 129.041 19.9264V19.428C129.041 17.4884 128.496 13.8802 123.594 13.9235C121.356 13.902 119.159 14.5227 117.266 15.7114L116.275 12.7858C118.674 11.4063 121.4 10.6881 124.172 10.7054C131.546 10.7054 133.343 15.7114 133.343 20.4574L133.376 29.44ZM129.106 22.9279C124.324 22.8303 118.9 23.6755 118.9 28.3456C118.847 28.8995 118.917 29.458 119.105 29.9822C119.292 30.5063 119.592 30.9833 119.985 31.3797C120.377 31.7762 120.852 32.0825 121.375 32.2771C121.899 32.4718 122.46 32.55 123.017 32.5065C124.304 32.5473 125.571 32.1813 126.635 31.4609C127.7 30.7406 128.508 29.703 128.942 28.4973C129.075 28.0469 129.141 27.5797 129.139 27.1104L129.106 22.9279Z" fill="#14181F"/>
<path d="M141 0H136.621V35.183H141V0Z" fill="#14181F"/>
</svg>
