<svg width="48" height="48" viewBox="0 0 48 48" fill="none" xmlns="http://www.w3.org/2000/svg">
<rect x="0.5" y="0.5" width="47" height="47" rx="23.5" stroke="#CCD1D6"/>
<path d="M30.6367 21.2689C31.289 20.8171 31.8761 20.2749 32.3327 19.6424C31.7456 19.8834 31.0607 20.0641 30.3757 20.1243C31.0933 19.7328 31.6151 19.1304 31.8761 18.3773C31.2237 18.7388 30.4736 19.0099 29.7234 19.1605C29.0711 18.5279 28.1905 18.1665 27.212 18.1665C25.3203 18.1665 23.7873 19.5822 23.7873 21.3292C23.7873 21.5701 23.82 21.8111 23.8852 22.052C21.0476 21.9014 18.5036 20.6364 16.8076 18.7388C16.514 19.1906 16.3509 19.7328 16.3509 20.3352C16.3509 21.4195 16.938 22.3834 17.8839 22.9557C17.3294 22.9255 16.775 22.8051 16.3183 22.5641V22.5942C16.3183 24.1304 17.4925 25.3954 19.0581 25.6966C18.7971 25.7569 18.471 25.8171 18.1774 25.8171C17.9491 25.8171 17.7534 25.787 17.5251 25.7569C17.9491 27.0219 19.2211 27.9255 20.7215 27.9557C19.5473 28.799 18.0796 29.3111 16.4814 29.3111C16.1879 29.3111 15.9269 29.281 15.666 29.2508C17.1663 30.1545 18.9602 30.6665 20.9172 30.6665C27.212 30.6665 30.6367 25.8773 30.6367 21.6906C30.6367 21.54 30.6367 21.4195 30.6367 21.2689Z" fill="#14181F"/>
</svg>
