<svg width="24" height="24" viewBox="0 0 24 24" fill="none" xmlns="http://www.w3.org/2000/svg">
<path d="M3.35906 8.52004C2.63906 9.24004 2.03906 9.96004 1.55906 10.56C1.19906 11.04 1.19906 11.76 1.55906 12.24C2.15906 12.96 2.75906 13.56 3.47906 14.28C8.15906 18.96 11.3991 20.28 14.7591 18.84C16.5591 18.12 18.4791 16.56 20.6391 14.4C21.3591 13.68 22.0791 12.96 22.5591 12.24C22.9191 11.76 22.9191 11.04 22.5591 10.56C21.9591 9.84004 21.3591 9.12004 20.6391 8.40004C13.6791 1.56004 9.59906 2.40003 3.35906 8.52004Z" stroke="#747474" stroke-width="2" stroke-miterlimit="10" stroke-linecap="round" stroke-linejoin="round"/>
<path d="M11.9999 15.5999C14.2532 15.5999 16.0799 13.7733 16.0799 11.5199C16.0799 9.26662 14.2532 7.43994 11.9999 7.43994C9.7466 7.43994 7.91992 9.26662 7.91992 11.5199C7.91992 13.7733 9.7466 15.5999 11.9999 15.5999Z" fill="#747474"/>
</svg>
