<svg width="20" height="20" viewBox="0 0 20 20" fill="none" xmlns="http://www.w3.org/2000/svg">
<path d="M15.2795 16.7468C14.6944 16.3349 14.1334 15.8897 13.5995 15.4134C13.0528 14.9601 12.5461 14.4401 12.0261 13.9601C11.5061 13.4801 11.0261 12.9201 10.5461 12.4001C10.0672 11.8496 9.62199 11.2708 9.21279 10.6668C9.05765 10.438 8.99866 10.1574 9.04855 9.88549C9.09844 9.6136 9.2532 9.37222 9.47946 9.21342C9.65362 9.09873 9.85759 9.0376 10.0661 9.0376C10.2747 9.0376 10.4786 9.09873 10.6528 9.21342C11.2399 9.62836 11.8051 10.0734 12.3461 10.5468C12.8795 11.0268 13.3995 11.5201 13.9061 12.0268C14.3861 12.5468 14.9061 13.0401 15.3728 13.5868C15.8461 14.1278 16.2912 14.693 16.7061 15.2801C16.7856 15.3901 16.8425 15.5149 16.8735 15.647C16.9045 15.7792 16.909 15.9163 16.8867 16.0502C16.8644 16.1841 16.8157 16.3123 16.7435 16.4273C16.6713 16.5422 16.577 16.6418 16.4661 16.7201C16.2932 16.8416 16.0881 16.909 15.8768 16.9137C15.6656 16.9185 15.4576 16.8604 15.2795 16.7468V16.7468Z" fill="#14181F"/>
<path d="M9.21341 9.33319C9.62675 8.74653 10.0934 8.19986 10.5467 7.65319C11.0001 7.10653 11.5467 6.66653 12.0001 6.06653C12.4534 5.46653 13.0267 5.07986 13.5601 4.59986C14.1011 4.12651 14.6663 3.68147 15.2534 3.26653C15.4533 3.13542 15.6923 3.07719 15.9301 3.10165C16.168 3.12611 16.3901 3.23175 16.5591 3.4008C16.7282 3.56985 16.8338 3.79198 16.8583 4.0298C16.8827 4.26762 16.8245 4.50661 16.6934 4.70653C16.2853 5.29867 15.84 5.86425 15.3601 6.39986C14.8667 6.93319 14.3867 7.45319 13.8801 7.95986C13.3734 8.46653 12.8534 8.95986 12.3067 9.42653C11.7601 9.89319 11.2134 10.3599 10.6267 10.7599C10.4017 10.9156 10.1243 10.9764 9.85471 10.929C9.58515 10.8815 9.34514 10.7297 9.18675 10.5065C9.07075 10.3317 9.01112 10.1255 9.01589 9.91567C9.02066 9.70589 9.08959 9.5026 9.21341 9.33319V9.33319Z" fill="#14181F"/>
<path d="M4.72079 3.25351C5.30588 3.66539 5.86681 4.11057 6.40079 4.58685C6.94746 5.04018 7.45413 5.56018 7.97413 6.04018C8.49413 6.52018 8.97413 7.08018 9.45413 7.60018C9.93301 8.15063 10.3783 8.72946 10.7875 9.33351C10.9426 9.5623 11.0016 9.84289 10.9517 10.1148C10.9018 10.3867 10.747 10.628 10.5208 10.7868C10.3466 10.9015 10.1427 10.9627 9.93413 10.9627C9.72559 10.9627 9.52162 10.9015 9.34746 10.7868C8.7604 10.3719 8.1952 9.92687 7.65413 9.45351C7.12079 8.95573 6.60079 8.47129 6.09413 8.00018C5.61413 7.48018 5.09413 6.98684 4.62746 6.44018C4.15411 5.89911 3.70907 5.33391 3.29413 4.74685C3.21461 4.6368 3.1577 4.51207 3.12671 4.37988C3.09572 4.2477 3.09126 4.11068 3.11358 3.97675C3.1359 3.84283 3.18456 3.71466 3.25675 3.59967C3.32894 3.48468 3.42321 3.38515 3.53413 3.30685C3.70435 3.1813 3.90805 3.10921 4.11935 3.09971C4.33065 3.09021 4.53999 3.14375 4.72079 3.25351Z" fill="#14181F"/>
<path d="M10.7867 10.6668C10.3734 11.2535 9.90672 11.8002 9.45338 12.3468C9.00005 12.8935 8.46672 13.3868 7.98672 13.9202C7.50672 14.4535 6.96005 14.9068 6.42672 15.3868C5.88565 15.8602 5.32045 16.3052 4.73338 16.7202C4.53346 16.8513 4.29448 16.9095 4.05666 16.885C3.81884 16.8606 3.59671 16.7549 3.42766 16.5859C3.25861 16.4168 3.15296 16.1947 3.1285 15.9569C3.10405 15.7191 3.16227 15.4801 3.29338 15.2802C3.70148 14.688 4.14682 14.1224 4.62672 13.5868C5.12005 13.0535 5.60005 12.5335 6.10672 12.0268C6.61338 11.5202 7.13338 11.0268 7.68005 10.5602C8.22672 10.0935 8.77338 9.62682 9.36005 9.22682C9.58512 9.07106 9.86251 9.0103 10.1321 9.05773C10.4016 9.10515 10.6417 9.25693 10.8001 9.48015C10.921 9.65499 10.9846 9.86305 10.9822 10.0756C10.9798 10.2882 10.9115 10.4947 10.7867 10.6668V10.6668Z" fill="#14181F"/>
</svg>
